<?xml version="1.0" standalone="no"?>
<!DOCTYPE svg PUBLIC "-//W3C//DTD SVG 20010904//EN"
 "http://www.w3.org/TR/2001/REC-SVG-20010904/DTD/svg10.dtd">
<svg version="1.0" xmlns="http://www.w3.org/2000/svg"
 width="297.000000pt" height="297.000000pt" viewBox="0 0 297.000000 297.000000"
 preserveAspectRatio="xMidYMid meet">
<metadata>
Created by potrace 1.14, written by Peter Selinger 2001-2017
</metadata>
<g transform="translate(0.000000,297.000000) scale(0.100000,-0.100000)"
fill="#000000" stroke="none">
<path d="M684 2647 c-9 -26 -11 -371 -3 -394 5 -15 50 -16 445 -18 467 -2 499
-5 576 -53 119 -74 156 -240 83 -367 -30 -51 -67 -79 -146 -106 -62 -21 -80
-22 -509 -24 -245 -2 -447 -3 -450 -4 -8 -2 -4 -1371 4 -1379 10 -10 412 -11
428 -1 10 7 13 105 15 471 0 255 2 466 2 471 1 4 57 7 126 7 l126 0 40 -87
c22 -49 50 -108 61 -133 11 -25 45 -96 74 -159 30 -62 54 -115 54 -116 0 -2
22 -50 48 -107 27 -57 62 -132 78 -167 16 -36 43 -92 59 -125 l30 -61 228 0
c199 0 230 2 237 15 6 11 -5 45 -36 109 -24 51 -44 94 -44 96 0 2 -23 52 -51
112 -78 163 -319 685 -319 689 0 3 24 15 54 28 192 85 313 234 362 443 25 110
16 320 -20 429 -26 81 -78 172 -132 230 -95 102 -257 179 -444 210 -19 4 -245
8 -502 9 l-467 3 -7 -21z"/>
</g>
</svg>
