<svg width="120" height="281" viewBox="0 0 120 281" fill="none" xmlns="http://www.w3.org/2000/svg">
<path opacity="0.5" d="M119.307 248.568H0V235.055L15.5554 2.1582H103.826L119.307 235.055V248.568Z" fill="url(#paint0_linear_944_1521)"/>
<g style="mix-blend-mode:screen" opacity="0.15">
<g style="mix-blend-mode:screen">
<path d="M103.827 2.67773H15.7789L12.8018 47.0328L112.535 133.674L103.827 2.67773Z" fill="white"/>
</g>
<g style="mix-blend-mode:screen">
<path d="M119.307 248.57V235.057L117 201.112L8.78248 107.1L4.16797 176.412L87.3035 248.57H119.307Z" fill="white"/>
</g>
</g>
<path style="mix-blend-mode:multiply" opacity="0.4" d="M119.383 235.055H0.150391V248.633H119.383V235.055Z" fill="url(#paint1_linear_944_1521)"/>
<path style="mix-blend-mode:multiply" opacity="0.6" d="M103.752 2.1582V248.568H119.382V235.055L103.901 2.1582H103.752Z" fill="url(#paint2_linear_944_1521)"/>
<path style="mix-blend-mode:multiply" opacity="0.6" d="M15.8546 2.1582V248.568H0.150391V235.055L15.6313 2.1582H15.8546Z" fill="url(#paint3_linear_944_1521)"/>
<path style="mix-blend-mode:screen" opacity="0.8" d="M17.6394 2.1582H15.6299V235.119H17.6394V2.1582Z" fill="url(#paint4_linear_944_1521)"/>
<path style="mix-blend-mode:screen" opacity="0.8" d="M103.901 2.1582H101.892V235.119H103.901V2.1582Z" fill="url(#paint5_linear_944_1521)"/>
<path d="M101.966 4.2919L103.827 2.1582H15.5557L17.6396 4.2919H101.966Z" fill="url(#paint6_linear_944_1521)"/>
<path style="mix-blend-mode:screen" opacity="0.75" d="M17.7136 235.055H15.7041V248.051H17.7136V235.055Z" fill="url(#paint7_linear_944_1521)"/>
<path style="mix-blend-mode:screen" opacity="0.2" d="M114.618 162.316L119.456 235.056V248.569H103.752V157.467L114.618 162.316Z" fill="url(#paint8_linear_944_1521)"/>
<path style="mix-blend-mode:multiply" opacity="0.4" d="M103.826 99.6618V2.1582H103.975L110.822 105.222L103.826 99.6618Z" fill="url(#paint9_linear_944_1521)"/>
<path style="mix-blend-mode:screen" opacity="0.3" d="M103.826 218.504L115.958 182.166L119.456 235.056V248.569H103.826V218.504Z" fill="url(#paint10_linear_944_1521)"/>
<path style="mix-blend-mode:multiply" opacity="0.2" d="M113.427 144.86L103.826 165.098V115.506L111.864 121.196L113.427 144.86Z" fill="url(#paint11_linear_944_1521)"/>
<path style="mix-blend-mode:screen" opacity="0.75" d="M103.901 235.055H101.892V248.051H103.901V235.055Z" fill="url(#paint12_linear_944_1521)"/>
<path style="mix-blend-mode:screen" opacity="0.2" d="M4.98819 162.316L0.150391 235.056V248.569H15.7802V157.467L4.98819 162.316Z" fill="url(#paint13_linear_944_1521)"/>
<path style="mix-blend-mode:screen" opacity="0.8" d="M101.891 234.344H17.6387V235.702H101.891V234.344Z" fill="url(#paint14_linear_944_1521)"/>
<path style="mix-blend-mode:multiply" opacity="0.4" d="M15.8538 99.6618V2.1582H15.6305L8.7832 105.222L15.8538 99.6618Z" fill="url(#paint15_linear_944_1521)"/>
<path style="mix-blend-mode:screen" opacity="0.3" d="M15.8546 218.504L3.64849 182.166L0.150391 235.056V248.569H15.8546V218.504Z" fill="url(#paint16_linear_944_1521)"/>
<path style="mix-blend-mode:multiply" opacity="0.2" d="M6.17871 144.86L15.8543 165.098V115.506L7.74168 121.196L6.17871 144.86Z" fill="url(#paint17_linear_944_1521)"/>
<g style="mix-blend-mode:screen" opacity="0.03">
<path d="M96.1608 234.279H47.5596V235.637H96.1608V234.279Z" fill="white"/>
</g>
<g style="mix-blend-mode:screen" opacity="0.05">
<path d="M95.6393 234.279H48.0801V235.637H95.6393V234.279Z" fill="white"/>
</g>
<g style="mix-blend-mode:screen" opacity="0.08">
<path d="M95.118 234.279H48.5264V235.637H95.118V234.279Z" fill="white"/>
</g>
<g style="mix-blend-mode:screen" opacity="0.1">
<path d="M94.5985 234.279H49.0488V235.637H94.5985V234.279Z" fill="white"/>
</g>
<g style="mix-blend-mode:screen" opacity="0.13">
<path d="M94.077 234.279H49.5693V235.637H94.077V234.279Z" fill="white"/>
</g>
<g style="mix-blend-mode:screen" opacity="0.15">
<path d="M93.63 234.279H50.0898V235.637H93.63V234.279Z" fill="white"/>
</g>
<g style="mix-blend-mode:screen" opacity="0.18">
<path d="M93.1085 234.279H50.6104V235.637H93.1085V234.279Z" fill="white"/>
</g>
<g style="mix-blend-mode:screen" opacity="0.21">
<path d="M92.5892 234.279H51.0586V235.637H92.5892V234.279Z" fill="white"/>
</g>
<g style="mix-blend-mode:screen" opacity="0.23">
<path d="M92.0677 234.279H51.5791V235.637H92.0677V234.279Z" fill="white"/>
</g>
<g style="mix-blend-mode:screen" opacity="0.26">
<path d="M91.5462 234.279H52.0996V235.637H91.5462V234.279Z" fill="white"/>
</g>
<g style="mix-blend-mode:screen" opacity="0.28">
<path d="M91.1001 234.279H52.6211V235.637H91.1001V234.279Z" fill="white"/>
</g>
<g style="mix-blend-mode:screen" opacity="0.31">
<path d="M90.5787 234.279H53.1416V235.637H90.5787V234.279Z" fill="white"/>
</g>
<g style="mix-blend-mode:screen" opacity="0.34">
<path d="M90.0584 234.279H53.5889V235.637H90.0584V234.279Z" fill="white"/>
</g>
<g style="mix-blend-mode:screen" opacity="0.36">
<path d="M89.5369 234.279H54.1094V235.637H89.5369V234.279Z" fill="white"/>
</g>
<g style="mix-blend-mode:screen" opacity="0.39">
<path d="M89.0898 234.279H54.6299V235.637H89.0898V234.279Z" fill="white"/>
</g>
<g style="mix-blend-mode:screen" opacity="0.41">
<path d="M88.5693 234.279H55.1514V235.637H88.5693V234.279Z" fill="white"/>
</g>
<g style="mix-blend-mode:screen" opacity="0.44">
<path d="M88.0479 234.279H55.6719V235.637H88.0479V234.279Z" fill="white"/>
</g>
<g style="mix-blend-mode:screen" opacity="0.46">
<path d="M87.5286 234.279H56.1201V235.637H87.5286V234.279Z" fill="white"/>
</g>
<g style="mix-blend-mode:screen" opacity="0.49">
<path d="M87.0071 234.279H56.6406V235.637H87.0071V234.279Z" fill="white"/>
</g>
<g style="mix-blend-mode:screen" opacity="0.52">
<path d="M86.561 234.279H57.1621V235.637H86.561V234.279Z" fill="white"/>
</g>
<g style="mix-blend-mode:screen" opacity="0.54">
<path d="M86.0385 234.279H57.6816V235.637H86.0385V234.279Z" fill="white"/>
</g>
<g style="mix-blend-mode:screen" opacity="0.57">
<path d="M85.4428 234.279H58.1279V235.637H85.4428V234.279Z" fill="white"/>
</g>
<g style="mix-blend-mode:screen" opacity="0.59">
<path d="M84.9978 234.279H58.6504V235.637H84.9978V234.279Z" fill="white"/>
</g>
<g style="mix-blend-mode:screen" opacity="0.62">
<path d="M84.4753 234.279H59.1699V235.637H84.4753V234.279Z" fill="white"/>
</g>
<g style="mix-blend-mode:screen" opacity="0.65">
<path d="M84.0292 234.279H59.6914V235.637H84.0292V234.279Z" fill="white"/>
</g>
<g style="mix-blend-mode:screen" opacity="0.67">
<path d="M83.5087 234.279H60.2129V235.637H83.5087V234.279Z" fill="white"/>
</g>
<g style="mix-blend-mode:screen" opacity="0.7">
<path d="M82.912 234.279H60.6582V235.637H82.912V234.279Z" fill="white"/>
</g>
<g style="mix-blend-mode:screen" opacity="0.72">
<path d="M82.467 234.279H61.1807V235.637H82.467V234.279Z" fill="white"/>
</g>
<g style="mix-blend-mode:screen" opacity="0.75">
<path d="M81.9445 234.279H61.7002V235.637H81.9445V234.279Z" fill="white"/>
</g>
<g style="mix-blend-mode:screen" opacity="0.77">
<path d="M81.4984 234.279H62.2217V235.637H81.4984V234.279Z" fill="white"/>
</g>
<g style="mix-blend-mode:screen" opacity="0.8">
<path d="M80.9779 234.279H62.7432V235.637H80.9779V234.279Z" fill="white"/>
</g>
<g style="mix-blend-mode:screen" opacity="0.02">
<path d="M96.1608 2.09375H47.5596V4.22745H96.1608V2.09375Z" fill="white"/>
</g>
<g style="mix-blend-mode:screen" opacity="0.03">
<path d="M95.6393 2.09375H48.0801V4.22745H95.6393V2.09375Z" fill="white"/>
</g>
<g style="mix-blend-mode:screen" opacity="0.05">
<path d="M95.118 2.09375H48.5264V4.22745H95.118V2.09375Z" fill="white"/>
</g>
<g style="mix-blend-mode:screen" opacity="0.06">
<path d="M94.5985 2.09375H49.0488V4.22745H94.5985V2.09375Z" fill="white"/>
</g>
<g style="mix-blend-mode:screen" opacity="0.08">
<path d="M94.077 2.09375H49.5693V4.22745H94.077V2.09375Z" fill="white"/>
</g>
<g style="mix-blend-mode:screen" opacity="0.1">
<path d="M93.63 2.09375H50.0898V4.22745H93.63V2.09375Z" fill="white"/>
</g>
<g style="mix-blend-mode:screen" opacity="0.11">
<path d="M93.1085 2.09375H50.6104V4.22745H93.1085V2.09375Z" fill="white"/>
</g>
<g style="mix-blend-mode:screen" opacity="0.13">
<path d="M92.5892 2.09375H51.0586V4.22745H92.5892V2.09375Z" fill="white"/>
</g>
<g style="mix-blend-mode:screen" opacity="0.15">
<path d="M92.0677 2.09375H51.5791V4.22745H92.0677V2.09375Z" fill="white"/>
</g>
<g style="mix-blend-mode:screen" opacity="0.16">
<path d="M91.5462 2.09375H52.0996V4.22745H91.5462V2.09375Z" fill="white"/>
</g>
<g style="mix-blend-mode:screen" opacity="0.18">
<path d="M91.1001 2.09375H52.6211V4.22745H91.1001V2.09375Z" fill="white"/>
</g>
<g style="mix-blend-mode:screen" opacity="0.19">
<path d="M90.5787 2.09375H53.1416V4.22745H90.5787V2.09375Z" fill="white"/>
</g>
<g style="mix-blend-mode:screen" opacity="0.21">
<path d="M90.0584 2.09375H53.5889V4.22745H90.0584V2.09375Z" fill="white"/>
</g>
<g style="mix-blend-mode:screen" opacity="0.23">
<path d="M89.5369 2.09375H54.1094V4.22745H89.5369V2.09375Z" fill="white"/>
</g>
<g style="mix-blend-mode:screen" opacity="0.24">
<path d="M89.0898 2.09375H54.6299V4.22745H89.0898V2.09375Z" fill="white"/>
</g>
<g style="mix-blend-mode:screen" opacity="0.26">
<path d="M88.5693 2.09375H55.1514V4.22745H88.5693V2.09375Z" fill="white"/>
</g>
<g style="mix-blend-mode:screen" opacity="0.27">
<path d="M88.0479 2.09375H55.6719V4.22745H88.0479V2.09375Z" fill="white"/>
</g>
<g style="mix-blend-mode:screen" opacity="0.29">
<path d="M87.5286 2.09375H56.1201V4.22745H87.5286V2.09375Z" fill="white"/>
</g>
<g style="mix-blend-mode:screen" opacity="0.31">
<path d="M87.0071 2.09375H56.6406V4.22745H87.0071V2.09375Z" fill="white"/>
</g>
<g style="mix-blend-mode:screen" opacity="0.32">
<path d="M86.561 2.09375H57.1621V4.22745H86.561V2.09375Z" fill="white"/>
</g>
<g style="mix-blend-mode:screen" opacity="0.34">
<path d="M86.0385 2.09375H57.6816V4.22745H86.0385V2.09375Z" fill="white"/>
</g>
<g style="mix-blend-mode:screen" opacity="0.35">
<path d="M85.4428 2.09375H58.1279V4.22745H85.4428V2.09375Z" fill="white"/>
</g>
<g style="mix-blend-mode:screen" opacity="0.37">
<path d="M84.9978 2.09375H58.6504V4.22745H84.9978V2.09375Z" fill="white"/>
</g>
<g style="mix-blend-mode:screen" opacity="0.39">
<path d="M84.4753 2.09375H59.1699V4.22745H84.4753V2.09375Z" fill="white"/>
</g>
<g style="mix-blend-mode:screen" opacity="0.4">
<path d="M84.0292 2.09375H59.6914V4.22745H84.0292V2.09375Z" fill="white"/>
</g>
<g style="mix-blend-mode:screen" opacity="0.42">
<path d="M83.5087 2.09375H60.2129V4.22745H83.5087V2.09375Z" fill="white"/>
</g>
<g style="mix-blend-mode:screen" opacity="0.44">
<path d="M82.912 2.09375H60.6582V4.22745H82.912V2.09375Z" fill="white"/>
</g>
<g style="mix-blend-mode:screen" opacity="0.45">
<path d="M82.467 2.09375H61.1807V4.22745H82.467V2.09375Z" fill="white"/>
</g>
<g style="mix-blend-mode:screen" opacity="0.47">
<path d="M81.9445 2.09375H61.7002V4.22745H81.9445V2.09375Z" fill="white"/>
</g>
<g style="mix-blend-mode:screen" opacity="0.48">
<path d="M81.4984 2.09375H62.2217V4.22745H81.4984V2.09375Z" fill="white"/>
</g>
<g style="mix-blend-mode:screen" opacity="0.5">
<path d="M80.9779 2.09375H62.7432V4.22745H80.9779V2.09375Z" fill="white"/>
</g>
<path d="M119.383 247.984H0.150391V280.184H119.383V247.984Z" fill="url(#paint18_linear_944_1521)"/>
<path style="mix-blend-mode:screen" d="M117.597 247.984H1.93665H0.150391V249.536V280.184H1.93665V249.536H117.597V280.184H119.383V249.536V247.984H117.597Z" fill="url(#paint19_linear_944_1521)"/>
<g style="mix-blend-mode:screen" opacity="0.01">
<path d="M107.252 247.984H58.6504V249.471H107.252V247.984Z" fill="white"/>
</g>
<g style="mix-blend-mode:screen" opacity="0.03">
<path d="M106.729 247.984H59.1699V249.471H106.729V247.984Z" fill="white"/>
</g>
<g style="mix-blend-mode:screen" opacity="0.04">
<path d="M106.283 247.984H59.6914V249.471H106.283V247.984Z" fill="white"/>
</g>
<g style="mix-blend-mode:screen" opacity="0.05">
<path d="M105.687 247.984H60.1377V249.471H105.687V247.984Z" fill="white"/>
</g>
<g style="mix-blend-mode:screen" opacity="0.06">
<path d="M105.166 247.984H60.6582V249.471H105.166V247.984Z" fill="white"/>
</g>
<g style="mix-blend-mode:screen" opacity="0.08">
<path d="M104.721 247.984H61.1807V249.471H104.721V247.984Z" fill="white"/>
</g>
<g style="mix-blend-mode:screen" opacity="0.09">
<path d="M104.198 247.984H61.7002V249.471H104.198V247.984Z" fill="white"/>
</g>
<g style="mix-blend-mode:screen" opacity="0.1">
<path d="M103.752 247.984H62.2217V249.471H103.752V247.984Z" fill="white"/>
</g>
<g style="mix-blend-mode:screen" opacity="0.12">
<path d="M103.157 247.984H62.668V249.471H103.157V247.984Z" fill="white"/>
</g>
<g style="mix-blend-mode:screen" opacity="0.13">
<path d="M102.636 247.984H63.1895V249.471H102.636V247.984Z" fill="white"/>
</g>
<g style="mix-blend-mode:screen" opacity="0.14">
<path d="M102.191 247.984H63.7119V249.471H102.191V247.984Z" fill="white"/>
</g>
<g style="mix-blend-mode:screen" opacity="0.15">
<path d="M101.669 247.984H64.2314V249.471H101.669V247.984Z" fill="white"/>
</g>
<g style="mix-blend-mode:screen" opacity="0.17">
<path d="M101.222 247.984H64.7529V249.471H101.222V247.984Z" fill="white"/>
</g>
<g style="mix-blend-mode:screen" opacity="0.18">
<path d="M100.627 247.984H65.1992V249.471H100.627V247.984Z" fill="white"/>
</g>
<g style="mix-blend-mode:screen" opacity="0.19">
<path d="M100.18 247.984H65.7197V249.471H100.18V247.984Z" fill="white"/>
</g>
<g style="mix-blend-mode:screen" opacity="0.21">
<path d="M99.6602 247.984H66.2422V249.471H99.6602V247.984Z" fill="white"/>
</g>
<g style="mix-blend-mode:screen" opacity="0.22">
<path d="M99.1377 247.984H66.7617V249.471H99.1377V247.984Z" fill="white"/>
</g>
<g style="mix-blend-mode:screen" opacity="0.23">
<path d="M98.6926 247.984H67.2842V249.471H98.6926V247.984Z" fill="white"/>
</g>
<g style="mix-blend-mode:screen" opacity="0.25">
<path d="M98.0959 247.984H67.7295V249.471H98.0959V247.984Z" fill="white"/>
</g>
<g style="mix-blend-mode:screen" opacity="0.26">
<path d="M97.6489 247.984H68.25V249.471H97.6489V247.984Z" fill="white"/>
</g>
<g style="mix-blend-mode:screen" opacity="0.27">
<path d="M97.1284 247.984H68.7715V249.471H97.1284V247.984Z" fill="white"/>
</g>
<g style="mix-blend-mode:screen" opacity="0.28">
<path d="M96.6069 247.984H69.292V249.471H96.6069V247.984Z" fill="white"/>
</g>
<g style="mix-blend-mode:screen" opacity="0.3">
<path d="M96.1618 247.984H69.8145V249.471H96.1618V247.984Z" fill="white"/>
</g>
<g style="mix-blend-mode:screen" opacity="0.31">
<path d="M95.5651 247.984H70.2598V249.471H95.5651V247.984Z" fill="white"/>
</g>
<g style="mix-blend-mode:screen" opacity="0.32">
<path d="M95.1181 247.984H70.7803V249.471H95.1181V247.984Z" fill="white"/>
</g>
<g style="mix-blend-mode:screen" opacity="0.34">
<path d="M94.5976 247.984H71.3018V249.471H94.5976V247.984Z" fill="white"/>
</g>
<g style="mix-blend-mode:screen" opacity="0.35">
<path d="M94.0761 247.984H71.8223V249.471H94.0761V247.984Z" fill="white"/>
</g>
<g style="mix-blend-mode:screen" opacity="0.36">
<path d="M93.631 247.984H72.3447V249.471H93.631V247.984Z" fill="white"/>
</g>
<g style="mix-blend-mode:screen" opacity="0.37">
<path d="M93.0353 247.984H72.791V249.471H93.0353V247.984Z" fill="white"/>
</g>
<g style="mix-blend-mode:screen" opacity="0.39">
<path d="M92.5892 247.984H73.3125V249.471H92.5892V247.984Z" fill="white"/>
</g>
<g style="mix-blend-mode:screen" opacity="0.4">
<path d="M92.0668 247.984H73.832V249.471H92.0668V247.984Z" fill="white"/>
</g>
<g style="mix-blend-mode:screen" opacity="0.01">
<path d="M50.4629 247.984H17.0449V249.471H50.4629V247.984Z" fill="white"/>
</g>
<g style="mix-blend-mode:screen" opacity="0.01">
<path d="M50.1651 247.984H17.417V249.471H50.1651V247.984Z" fill="white"/>
</g>
<g style="mix-blend-mode:screen" opacity="0.02">
<path d="M49.7929 247.984H17.7891V249.471H49.7929V247.984Z" fill="white"/>
</g>
<g style="mix-blend-mode:screen" opacity="0.03">
<path d="M49.4209 247.984H18.0869V249.471H49.4209V247.984Z" fill="white"/>
</g>
<g style="mix-blend-mode:screen" opacity="0.03">
<path d="M49.1231 247.984H18.459V249.471H49.1231V247.984Z" fill="white"/>
</g>
<g style="mix-blend-mode:screen" opacity="0.04">
<path d="M48.7509 247.984H18.8311V249.471H48.7509V247.984Z" fill="white"/>
</g>
<g style="mix-blend-mode:screen" opacity="0.05">
<path d="M48.3789 247.984H19.1289V249.471H48.3789V247.984Z" fill="white"/>
</g>
<g style="mix-blend-mode:screen" opacity="0.05">
<path d="M48.0067 247.984H19.501V249.471H48.0067V247.984Z" fill="white"/>
</g>
<g style="mix-blend-mode:screen" opacity="0.06">
<path d="M47.708 247.984H19.8721V249.471H47.708V247.984Z" fill="white"/>
</g>
<g style="mix-blend-mode:screen" opacity="0.06">
<path d="M47.337 247.984H20.1709V249.471H47.337V247.984Z" fill="white"/>
</g>
<g style="mix-blend-mode:screen" opacity="0.07">
<path d="M46.9647 247.984H20.543V249.471H46.9647V247.984Z" fill="white"/>
</g>
<g style="mix-blend-mode:screen" opacity="0.08">
<path d="M46.668 247.984H20.916V249.471H46.668V247.984Z" fill="white"/>
</g>
<g style="mix-blend-mode:screen" opacity="0.08">
<path d="M46.294 247.984H21.2119V249.471H46.294V247.984Z" fill="white"/>
</g>
<g style="mix-blend-mode:screen" opacity="0.09">
<path d="M45.9228 247.984H21.585V249.471H45.9228V247.984Z" fill="white"/>
</g>
<g style="mix-blend-mode:screen" opacity="0.1">
<path d="M45.624 247.984H21.9561V249.471H45.624V247.984Z" fill="white"/>
</g>
<g style="mix-blend-mode:screen" opacity="0.1">
<path d="M45.251 247.984H22.2529V249.471H45.251V247.984Z" fill="white"/>
</g>
<g style="mix-blend-mode:screen" opacity="0.11">
<path d="M44.8798 247.984H22.626V249.471H44.8798V247.984Z" fill="white"/>
</g>
<g style="mix-blend-mode:screen" opacity="0.12">
<path d="M44.5811 247.984H22.9971V249.471H44.5811V247.984Z" fill="white"/>
</g>
<g style="mix-blend-mode:screen" opacity="0.12">
<path d="M44.2101 247.984H23.2959V249.471H44.2101V247.984Z" fill="white"/>
</g>
<g style="mix-blend-mode:screen" opacity="0.13">
<path d="M43.8378 247.984H23.668V249.471H43.8378V247.984Z" fill="white"/>
</g>
<g style="mix-blend-mode:screen" opacity="0.14">
<path d="M43.541 247.984H24.041V249.471H43.541V247.984Z" fill="white"/>
</g>
<g style="mix-blend-mode:screen" opacity="0.14">
<path d="M43.1681 247.984H24.3379V249.471H43.1681V247.984Z" fill="white"/>
</g>
<g style="mix-blend-mode:screen" opacity="0.15">
<path d="M42.7959 247.984H24.71V249.471H42.7959V247.984Z" fill="white"/>
</g>
<g style="mix-blend-mode:screen" opacity="0.15">
<path d="M42.4981 247.984H25.082V249.471H42.4981V247.984Z" fill="white"/>
</g>
<g style="mix-blend-mode:screen" opacity="0.16">
<path d="M42.1261 247.984H25.3799V249.471H42.1261V247.984Z" fill="white"/>
</g>
<g style="mix-blend-mode:screen" opacity="0.17">
<path d="M41.7539 247.984H25.752V249.471H41.7539V247.984Z" fill="white"/>
</g>
<g style="mix-blend-mode:screen" opacity="0.17">
<path d="M41.4571 247.984H26.125V249.471H41.4571V247.984Z" fill="white"/>
</g>
<g style="mix-blend-mode:screen" opacity="0.18">
<path d="M41.0097 247.984H26.4219V249.471H41.0097V247.984Z" fill="white"/>
</g>
<g style="mix-blend-mode:screen" opacity="0.19">
<path d="M40.7119 247.984H26.7939V249.471H40.7119V247.984Z" fill="white"/>
</g>
<g style="mix-blend-mode:screen" opacity="0.19">
<path d="M40.4141 247.984H27.166V249.471H40.4141V247.984Z" fill="white"/>
</g>
<g style="mix-blend-mode:screen" opacity="0.2">
<path d="M39.9687 247.984H27.4648V249.471H39.9687V247.984Z" fill="white"/>
</g>
<path style="mix-blend-mode:multiply" opacity="0.3" d="M0.148903 280.252H119.382V278.7H0.148903V280.252Z" fill="url(#paint20_linear_944_1521)"/>
<path style="mix-blend-mode:screen" opacity="0.3" d="M103.901 247.984H15.7783V280.184H103.901V247.984Z" fill="url(#paint21_linear_944_1521)"/>
<path style="mix-blend-mode:multiply" opacity="0.1" d="M103.901 2.1582H103.752V33.3878L117.149 235.055V248.568H119.382V235.055L103.901 2.1582Z" fill="url(#paint22_linear_944_1521)"/>
<path style="mix-blend-mode:multiply" opacity="0.1" d="M15.6313 2.1582H15.8546V33.3878L2.38322 235.055V248.568H0.150391V235.055L15.6313 2.1582Z" fill="url(#paint23_linear_944_1521)"/>
<path style="mix-blend-mode:screen" opacity="0.3" d="M119.382 235.055V234.344H103.752V235.702H119.382V235.055Z" fill="url(#paint24_linear_944_1521)"/>
<path style="mix-blend-mode:screen" opacity="0.3" d="M0.150391 235.055L0.22482 234.344H15.8546V235.702H0.150391V235.055Z" fill="url(#paint25_linear_944_1521)"/>
<path style="mix-blend-mode:multiply" opacity="0.2" d="M103.752 235.701L119.382 248.633V235.701H103.752Z" fill="url(#paint26_linear_944_1521)"/>
<path style="mix-blend-mode:multiply" opacity="0.2" d="M15.7802 235.701L0.150391 248.633V235.701H15.7802Z" fill="url(#paint27_linear_944_1521)"/>
<path style="mix-blend-mode:multiply" opacity="0.3" d="M92.1423 275.725H17.0449L22.2549 271.393H97.4267L92.1423 275.725Z" fill="url(#paint28_linear_944_1521)"/>
<path d="M97.3503 256.395H22.3274C22.2863 256.395 22.2529 256.423 22.2529 256.459V271.718C22.2529 271.754 22.2863 271.783 22.3274 271.783H97.3503C97.3914 271.783 97.4248 271.754 97.4248 271.718V256.459C97.4248 256.423 97.3914 256.395 97.3503 256.395Z" fill="url(#paint29_linear_944_1521)"/>
<path d="M97.3503 256.395H22.2529V271.718H97.4248V256.459L97.3503 256.395ZM96.6805 271.266H22.9972V256.976H96.6805V271.266Z" fill="url(#paint30_linear_944_1521)"/>
<path opacity="0.03" d="M95.8634 235.12C95.8634 236.607 86.2623 237.836 74.4283 237.836C62.5943 237.836 52.9932 236.607 52.9932 235.12C52.9932 233.633 62.5943 232.404 74.4283 232.404C86.2623 232.404 95.8634 233.439 95.8634 235.12Z" fill="#F7F7F8"/>
<path opacity="0.06" d="M95.2683 235.118C95.2683 236.54 85.9649 237.769 74.4286 237.769C62.8923 237.769 53.5889 236.54 53.5889 235.118C53.5889 233.695 62.8923 232.467 74.4286 232.467C85.9649 232.467 95.2683 233.437 95.2683 235.118Z" fill="#F7F7F8"/>
<path opacity="0.1" d="M94.7466 235.121C94.7466 236.544 85.6665 237.643 74.4279 237.643C63.1893 237.643 54.1836 236.544 54.1836 235.121C54.1836 233.699 63.2638 232.6 74.4279 232.6C85.592 232.6 94.7466 233.44 94.7466 235.121Z" fill="#F7F7F8"/>
<path opacity="0.13" d="M94.1526 235.119C94.1526 236.477 85.2957 237.576 74.4293 237.576C63.5629 237.576 55.0781 236.477 55.0781 235.119C55.0781 233.761 63.935 232.662 74.8014 232.662C85.6678 232.662 94.1526 233.761 94.1526 235.119Z" fill="#F7F7F8"/>
<path opacity="0.16" d="M93.5572 235.119C93.5572 236.477 84.998 237.511 74.4293 237.511C63.8606 237.511 55.0781 236.477 55.0781 235.119C55.0781 233.761 63.6373 232.727 74.206 232.727C84.7747 232.727 93.5572 233.826 93.5572 235.119Z" fill="#F7F7F8"/>
<path opacity="0.19" d="M93.0349 235.123C93.0349 236.416 84.699 237.45 74.428 237.45C64.157 237.45 55.8955 236.416 55.8955 235.123C55.8955 233.829 64.157 232.795 74.428 232.795C84.699 232.795 93.0349 233.829 93.0349 235.123Z" fill="#F7F7F8"/>
<path opacity="0.23" d="M92.2905 235.12C92.2905 236.349 84.2523 237.383 74.279 237.383C64.3058 237.383 56.2676 236.349 56.2676 235.12C56.2676 233.892 64.3802 232.857 74.279 232.857C84.1779 232.857 92.2905 233.892 92.2905 235.12Z" fill="#F7F7F8"/>
<path opacity="0.26" d="M91.8438 235.12C91.8438 236.349 84.0289 237.318 74.4278 237.318C64.8266 237.318 57.0117 236.349 57.0117 235.12C57.0117 233.892 64.4545 232.986 74.4278 232.986C84.4011 232.986 91.8438 233.956 91.8438 235.12Z" fill="#F7F7F8"/>
<path opacity="0.29" d="M91.3231 235.118C91.3231 236.282 83.8804 237.187 74.4281 237.187C64.9758 237.187 57.6074 236.282 57.6074 235.118C57.6074 233.954 65.0502 233.049 74.4281 233.049C83.8059 233.049 91.3231 233.954 91.3231 235.118Z" fill="#F7F7F8"/>
<path opacity="0.32" d="M90.7272 235.122C90.7272 236.221 83.2844 237.126 74.4276 237.126C65.5707 237.126 58.1279 236.221 58.1279 235.122C58.1279 234.022 65.5707 233.117 74.4276 233.117C83.2844 233.117 90.7272 234.022 90.7272 235.122Z" fill="#F7F7F8"/>
<path opacity="0.35" d="M90.1321 235.121C90.1321 236.221 83.1359 237.061 74.4279 237.061C65.7198 237.061 58.7236 236.221 58.7236 235.121C58.7236 234.022 66.1664 233.182 74.4279 233.182C82.6893 233.182 90.1321 234.087 90.1321 235.121Z" fill="#F7F7F8"/>
<path opacity="0.39" d="M89.6109 235.121C89.6109 236.156 82.838 236.996 74.7254 236.996C66.6128 236.996 59.8398 236.156 59.8398 235.121C59.8398 234.087 66.6128 233.246 74.7254 233.246C82.838 233.246 89.6109 234.087 89.6109 235.121Z" fill="#F7F7F8"/>
<path opacity="0.42" d="M89.0152 235.119C89.0152 236.089 82.4655 236.929 74.1297 236.929C65.7938 236.929 59.2441 236.089 59.2441 235.119C59.2441 234.149 65.7938 233.309 74.1297 233.309C82.4655 233.309 89.0152 234.149 89.0152 235.119Z" fill="#F7F7F8"/>
<path opacity="0.45" d="M88.4213 235.119C88.4213 236.088 82.1694 236.8 74.4289 236.8C66.6884 236.8 60.4365 236.088 60.4365 235.119C60.4365 234.149 66.6884 233.438 74.4289 233.438C82.1694 233.438 88.4213 234.149 88.4213 235.119Z" fill="#F7F7F8"/>
<path opacity="0.48" d="M87.8996 235.122C87.8996 236.028 81.871 236.739 74.4282 236.739C66.9855 236.739 61.0312 236.028 61.0312 235.122C61.0312 234.217 66.9855 233.506 74.4282 233.506C81.871 233.506 87.8996 234.217 87.8996 235.122Z" fill="#F7F7F8"/>
<path opacity="0.52" d="M87.3037 235.119C87.3037 235.959 81.5728 236.67 74.4277 236.67C67.2827 236.67 61.5518 235.959 61.5518 235.119C61.5518 234.278 67.3571 233.438 74.4277 233.438C81.4983 233.438 87.3037 234.278 87.3037 235.119Z" fill="#F7F7F8"/>
<path opacity="0.55" d="M86.7075 235.119C86.7075 235.959 81.1999 236.606 74.427 236.606C67.6541 236.606 62.5186 235.959 62.5186 235.119C62.5186 234.278 67.6541 233.438 74.427 233.438C81.1999 233.438 86.7075 234.278 86.7075 235.119Z" fill="#F7F7F8"/>
<path opacity="0.58" d="M86.1865 235.116C86.1865 235.892 80.9022 236.538 74.427 236.538C67.9518 236.538 62.5186 235.892 62.5186 235.116C62.5186 234.34 67.7285 233.693 74.2037 233.693C80.6789 233.693 86.1865 234.34 86.1865 235.116Z" fill="#F7F7F8"/>
<path opacity="0.61" d="M85.5929 235.117C85.5929 235.829 80.6063 236.475 74.4288 236.475C68.2513 236.475 63.2646 235.829 63.2646 235.117C63.2646 234.406 68.2513 233.824 74.4288 233.824C80.6063 233.824 85.5929 234.406 85.5929 235.117Z" fill="#F7F7F8"/>
<path opacity="0.65" d="M84.8493 235.121C84.8493 235.832 80.1604 236.35 74.2806 236.35C68.4008 236.35 63.7119 235.832 63.7119 235.121C63.7119 234.41 68.4753 233.893 74.2806 233.893C80.086 233.893 84.8493 234.41 84.8493 235.121Z" fill="#F7F7F8"/>
<path opacity="0.68" d="M84.8482 235.117C84.8482 235.764 80.3081 236.281 74.8004 236.281C69.2928 236.281 64.8271 235.764 64.8271 235.117C64.8271 234.47 69.2928 233.953 74.8004 233.953C80.3081 233.953 84.8482 234.47 84.8482 235.117Z" fill="#F7F7F8"/>
<path opacity="0.71" d="M83.8802 235.121C80.8868 236.175 77.6349 236.553 74.4279 236.22C71.2208 236.553 67.969 236.175 64.9756 235.121C67.969 234.067 71.2208 233.689 74.4279 234.022C77.6349 233.689 80.8868 234.067 83.8802 235.121Z" fill="#F7F7F8"/>
<path opacity="0.74" d="M83.2851 235.119C83.2851 235.7 79.3404 236.153 74.4282 236.153C69.516 236.153 65.5713 235.7 65.5713 235.119C65.5713 234.537 69.516 234.084 74.4282 234.084C79.3404 234.084 83.2851 234.537 83.2851 235.119Z" fill="#F7F7F8"/>
<path opacity="0.77" d="M82.7643 235.122C82.7643 235.639 79.043 236.092 74.4285 236.092C69.8139 236.092 66.167 235.639 66.167 235.122C66.167 234.605 69.8884 234.152 74.4285 234.152C78.9685 234.152 82.7643 234.605 82.7643 235.122Z" fill="#F7F7F8"/>
<path opacity="0.81" d="M82.1697 235.121C79.7971 235.898 77.2493 236.186 74.7269 235.962C72.2047 236.179 69.6587 235.892 67.2842 235.121C69.6587 234.351 72.2047 234.064 74.7269 234.281C77.2493 234.057 79.7971 234.344 82.1697 235.121Z" fill="#F7F7F8"/>
<path opacity="0.84" d="M81.573 235.12C81.573 235.572 78.3726 235.896 74.1303 235.896C69.8879 235.896 66.6875 235.572 66.6875 235.12C66.6875 234.667 69.8879 234.344 74.1303 234.344C78.3726 234.344 81.573 234.667 81.573 235.12Z" fill="#F7F7F8"/>
<path opacity="0.87" d="M81.0516 235.124C78.9399 235.814 76.6693 236.058 74.4276 235.835C72.2103 236.063 69.9625 235.819 67.8779 235.124C69.9625 234.429 72.2103 234.185 74.4276 234.413C76.6693 234.19 78.9399 234.434 81.0516 235.124Z" fill="#F7F7F8"/>
<path opacity="0.9" d="M80.4576 235.122C80.4576 235.51 77.7783 235.768 74.429 235.768C71.0798 235.768 68.4004 235.768 68.4004 235.122C70.3264 234.508 72.389 234.287 74.429 234.475C76.469 234.287 78.5316 234.508 80.4576 235.122Z" fill="#F7F7F8"/>
<path opacity="0.94" d="M79.8606 235.12C79.8606 235.443 77.4789 235.702 74.4273 235.702C72.5888 235.887 70.7259 235.687 68.9941 235.12C70.7259 234.552 72.5888 234.353 74.4273 234.538C77.4045 234.538 79.8606 234.796 79.8606 235.12Z" fill="#F7F7F8"/>
<path opacity="0.97" d="M79.3401 235.12C77.7667 235.605 76.0891 235.782 74.4278 235.637C72.7666 235.782 71.089 235.605 69.5156 235.12C71.0991 234.674 72.772 234.52 74.4278 234.667C76.0837 234.52 77.7566 234.674 79.3401 235.12Z" fill="#F7F7F8"/>
<path d="M78.7459 235.12C77.3582 235.527 75.8833 235.66 74.4291 235.508C72.9749 235.66 71.5 235.527 70.1123 235.12C71.5093 234.752 72.9748 234.62 74.4291 234.732C75.8834 234.62 77.3489 234.752 78.7459 235.12Z" fill="#F7F7F8"/>
<path opacity="0.03" d="M96.3088 3.38749C96.3088 4.80996 86.7076 5.97379 74.8736 5.97379C63.0396 5.97379 53.4385 4.80996 53.4385 3.38749C53.4385 1.96503 63.0396 0.671875 74.8736 0.671875C86.7076 0.671875 96.3088 1.90037 96.3088 3.38749Z" fill="#F7F7F8"/>
<path opacity="0.06" d="M95.7136 3.38708C95.7136 4.74489 86.4102 5.90873 74.8739 5.90873C63.3376 5.90873 54.0342 4.74489 54.0342 3.38708C54.0342 2.02927 63.3376 0.800781 74.8739 0.800781C86.4102 0.800781 95.7136 1.96462 95.7136 3.38708Z" fill="#F7F7F8"/>
<path opacity="0.1" d="M95.1185 3.38749C95.1185 4.7453 86.0383 5.84448 74.8742 5.84448C63.71 5.84448 54.6299 4.7453 54.6299 3.38749C54.6299 2.02968 63.71 0.671875 74.8742 0.671875C86.0383 0.671875 95.1185 2.02968 95.1185 3.38749Z" fill="#F7F7F8"/>
<path opacity="0.13" d="M94.5991 3.38647C94.5991 4.67962 85.7423 5.7788 74.8759 5.7788C64.0094 5.7788 55.0781 4.67962 55.0781 3.38647C55.0781 2.09332 64.0094 0.994141 74.8759 0.994141C85.7423 0.994141 94.5991 2.02866 94.5991 3.38647Z" fill="#F7F7F8"/>
<path opacity="0.16" d="M94.0028 3.38822C94.0028 4.61671 85.4437 5.71589 74.8749 5.71589C64.3062 5.71589 55.7471 4.61671 55.7471 3.38822C55.7471 2.15972 64.3062 1.06055 74.8749 1.06055C85.4437 1.06055 94.0028 2.09507 94.0028 3.38822Z" fill="#F7F7F8"/>
<path opacity="0.19" d="M93.4077 3.38801C93.4077 4.61651 85.1462 5.58637 74.8752 5.58637C64.6042 5.58637 56.3428 4.61651 56.3428 3.38801C56.3428 2.15952 64.6042 1.125 74.8752 1.125C85.1462 1.125 93.4077 2.09486 93.4077 3.38801Z" fill="#F7F7F8"/>
<path opacity="0.23" d="M92.8862 3.38781C92.8862 4.55164 84.7736 5.52151 74.8747 5.52151C64.9759 5.52151 56.8633 4.55164 56.8633 3.38781C56.8633 2.22397 64.9015 1.18945 74.8747 1.18945C84.848 1.18945 92.8862 2.15932 92.8862 3.38781Z" fill="#F7F7F8"/>
<path opacity="0.26" d="M92.2901 3.38565C92.2901 4.54949 84.8473 5.45469 74.8741 5.45469C64.9008 5.45469 57.458 4.54949 57.458 3.38565C57.458 2.22182 65.2729 1.25195 74.8741 1.25195C84.4752 1.25195 92.2901 2.22182 92.2901 3.38565Z" fill="#F7F7F8"/>
<path opacity="0.29" d="M91.6952 3.38935C91.6952 4.48853 84.2524 5.39374 74.8746 5.39374C65.4967 5.39374 57.9795 4.48853 57.9795 3.38935C57.9795 2.29018 65.4223 1.32031 74.8746 1.32031C84.3269 1.32031 91.6952 2.22552 91.6952 3.38935Z" fill="#F7F7F8"/>
<path opacity="0.32" d="M91.1735 3.38524C91.1735 4.41976 83.7307 5.32497 74.8739 5.32497C66.017 5.32497 58.5742 4.41976 58.5742 3.38524C58.5742 2.35072 66.017 1.38086 74.8739 1.38086C83.7307 1.38086 91.1735 2.28606 91.1735 3.38524Z" fill="#F7F7F8"/>
<path opacity="0.35" d="M90.5784 3.38679C90.5784 4.42131 83.5822 5.26186 74.8741 5.26186C66.1661 5.26186 59.1699 4.42131 59.1699 3.38679C59.1699 2.35227 66.1661 1.51172 74.8741 1.51172C83.5822 1.51172 90.5784 2.35227 90.5784 3.38679Z" fill="#F7F7F8"/>
<path opacity="0.39" d="M89.9839 3.38854C89.9839 4.3584 83.211 5.19895 75.0984 5.19895C66.9858 5.19895 60.2129 4.3584 60.2129 3.38854C60.2129 2.41867 67.0602 1.57812 75.0984 1.57812C83.1366 1.57812 89.9839 2.35402 89.9839 3.38854Z" fill="#F7F7F8"/>
<path opacity="0.42" d="M89.4624 3.38443C89.4624 4.28963 82.9128 5.06552 74.5769 5.06552C66.241 5.06552 59.6914 4.28963 59.6914 3.38443C59.6914 2.47922 66.241 1.63867 74.5769 1.63867C82.9128 1.63867 89.4624 2.41456 89.4624 3.38443Z" fill="#F7F7F8"/>
<path opacity="0.45" d="M88.8676 3.39008C88.8676 4.29529 82.6156 5.00652 74.8752 5.00652C67.1347 5.00652 60.8828 4.29529 60.8828 3.39008C60.8828 2.48487 67.1347 1.70898 74.8752 1.70898C82.6156 1.70898 88.8676 2.42022 88.8676 3.39008Z" fill="#F7F7F8"/>
<path opacity="0.48" d="M88.2717 3.38597C88.2717 4.22652 82.3175 4.93775 74.8747 4.93775C67.4319 4.93775 61.4033 4.22652 61.4033 3.38597C61.4033 2.54542 67.4319 1.76953 74.8747 1.76953C82.3175 1.76953 88.2717 2.48076 88.2717 3.38597Z" fill="#F7F7F8"/>
<path opacity="0.52" d="M87.7509 3.38772C87.7509 4.22827 81.9456 4.87484 74.875 4.87484C67.8044 4.87484 61.999 4.22827 61.999 3.38772C61.999 2.54717 67.7299 1.83594 74.875 1.83594C82.02 1.83594 87.7509 2.54717 87.7509 3.38772Z" fill="#F7F7F8"/>
<path opacity="0.55" d="M87.1541 3.38556C87.1541 4.16145 81.6464 4.80803 74.8735 4.80803C68.1006 4.80803 62.5186 4.16145 62.5186 3.38556C62.5186 2.60967 68.0262 1.89844 74.7991 1.89844C81.572 1.89844 87.1541 2.54501 87.1541 3.38556Z" fill="#F7F7F8"/>
<path opacity="0.58" d="M86.6334 3.38711C82.9048 4.68332 78.8627 5.15005 74.8738 4.74491C70.885 5.15005 66.8428 4.68332 63.1143 3.38711C63.1143 2.61121 68.3986 2.0293 74.8738 2.0293C81.349 2.0293 86.6334 2.61121 86.6334 3.38711Z" fill="#F7F7F8"/>
<path opacity="0.61" d="M86.0402 3.3869C86.0402 4.09813 81.0535 4.68005 74.876 4.68005C68.6986 4.68005 63.7119 4.09813 63.7119 3.3869C63.7119 2.67567 68.6986 2.09375 74.876 2.09375C81.0535 2.09375 86.0402 2.67567 86.0402 3.3869Z" fill="#F7F7F8"/>
<path opacity="0.65" d="M85.4431 3.3867C85.4431 4.03327 80.7542 4.55053 74.8744 4.55053C68.9946 4.55053 64.3057 4.03327 64.3057 3.3867C64.3057 2.74012 68.9946 2.1582 74.8744 2.1582C80.7542 2.1582 85.4431 2.67546 85.4431 3.3867Z" fill="#F7F7F8"/>
<path opacity="0.68" d="M84.8482 3.38454C81.6467 4.43799 78.2026 4.81475 74.8004 4.48372C71.4228 4.80439 68.0056 4.42778 64.8271 3.38454C64.8271 2.73796 69.3672 2.2207 74.8749 2.2207C80.3825 2.2207 84.8482 2.73796 84.8482 3.38454Z" fill="#F7F7F8"/>
<path opacity="0.71" d="M84.3275 3.38833C84.3275 3.97025 80.0851 4.42285 74.8752 4.42285C69.6652 4.42285 65.4229 3.97025 65.4229 3.38833C68.4163 2.33453 71.6681 1.95639 74.8752 2.28915C78.0822 1.95639 81.334 2.33453 84.3275 3.38833Z" fill="#F7F7F8"/>
<path opacity="0.74" d="M83.7313 3.38608C80.9119 4.32391 77.8736 4.65662 74.8745 4.35595C71.8753 4.65662 68.837 4.32391 66.0176 3.38608C66.0176 2.80417 69.9622 2.35156 74.8745 2.35156C79.7867 2.35156 83.7313 2.80417 83.7313 3.38608Z" fill="#F7F7F8"/>
<path opacity="0.77" d="M83.2108 3.38783C80.5499 4.24445 77.6967 4.55427 74.8749 4.29304C72.0531 4.55427 69.2 4.24445 66.5391 3.38783C66.5391 2.87057 70.2604 2.41797 74.8749 2.41797C79.4894 2.41797 83.2108 2.87057 83.2108 3.38783Z" fill="#F7F7F8"/>
<path opacity="0.81" d="M82.615 3.38742C80.2405 4.15763 77.6945 4.44516 75.1722 4.22797C72.65 4.44516 70.104 4.15763 67.7295 3.38742C67.7295 2.87016 71.2276 2.54688 75.1722 2.54688C79.1169 2.54688 82.615 2.87016 82.615 3.38742Z" fill="#F7F7F8"/>
<path opacity="0.84" d="M82.0193 3.38722C79.6461 4.16149 77.0932 4.42763 74.5765 4.16311C72.0599 4.42763 69.5069 4.16149 67.1338 3.38722C67.1338 2.93462 70.3342 2.61133 74.5765 2.61133C78.8189 2.61133 82.0193 2.93462 82.0193 3.38722Z" fill="#F7F7F8"/>
<path opacity="0.87" d="M81.4981 3.38905C79.3747 4.0368 77.1099 4.25787 74.874 4.03562C72.6382 4.25787 70.3734 4.0368 68.25 3.38905C70.3618 2.69864 72.6323 2.45485 74.874 2.67781C77.1157 2.45485 79.3863 2.69864 81.4981 3.38905Z" fill="#F7F7F8"/>
<path opacity="0.9" d="M80.903 3.38681C78.966 3.95935 76.9087 4.15793 74.8743 3.96873C72.84 4.15793 70.7826 3.95935 68.8457 3.38681C68.8457 2.99886 71.5251 2.74023 74.8743 2.74023C78.2236 2.74023 80.903 2.99886 80.903 3.38681Z" fill="#F7F7F8"/>
<path opacity="0.94" d="M80.3078 3.38915C78.5556 3.87872 76.7073 4.05469 74.8746 3.90641C73.0419 4.06205 71.1919 3.88592 69.4414 3.38915C69.4414 3.38915 71.8231 2.80723 74.8746 2.80723C76.7132 2.62222 78.576 2.82174 80.3078 3.38915Z" fill="#F7F7F8"/>
<path opacity="0.97" d="M79.7863 3.38653C78.2029 3.83214 76.53 3.98628 74.8741 3.83913C73.2183 3.98628 71.5454 3.83214 69.9619 3.38653C71.5353 2.90132 73.2128 2.72468 74.8741 2.86927C76.5354 2.72468 78.2129 2.90132 79.7863 3.38653Z" fill="#F7F7F8"/>
<path d="M79.1912 3.38893C77.7942 3.75745 76.3287 3.88916 74.8744 3.77687C73.4202 3.88916 71.9546 3.75745 70.5576 3.38893C71.9345 2.94154 73.4145 2.78637 74.8744 2.93633C76.3343 2.78637 77.8143 2.94154 79.1912 3.38893Z" fill="#F7F7F8"/>
<g opacity="0.9">
<path d="M59.318 135.091C56.0922 135.139 52.8851 134.656 49.8657 133.669C47.383 132.815 45.2377 131.355 43.6882 129.466C42.1046 127.69 40.9181 125.673 40.1901 123.517C39.5174 120.843 39.2176 118.108 39.297 115.371V113.108H54.1825V115.306C54.0183 117.654 54.398 120.006 55.2989 122.224C55.6617 122.883 56.2492 123.429 56.9816 123.788C57.714 124.146 58.5557 124.3 59.3924 124.229C60.182 124.309 60.9802 124.163 61.6654 123.813C62.3506 123.463 62.8854 122.928 63.1882 122.289C63.9718 120.205 64.3 118.012 64.1558 115.823C64.4067 113.178 63.8415 110.522 62.5184 108.129C61.8454 107.32 60.9442 106.675 59.9015 106.256C58.8587 105.837 57.7095 105.658 56.5642 105.737H53.9592V96.6199H56.2665C57.4081 96.738 58.5657 96.6044 59.6323 96.2315C60.6989 95.8586 61.6402 95.2584 62.3695 94.4862C63.6437 92.3568 64.2107 89.9613 64.0069 87.5679C64.0812 85.6402 63.675 83.7213 62.8161 81.9427C62.4236 81.3472 61.8444 80.8609 61.1461 80.5404C60.4477 80.2198 59.6588 80.0783 58.8714 80.1323C58.0851 80.0726 57.2969 80.2274 56.6166 80.575C55.9363 80.9227 55.3976 81.446 55.0756 82.072C54.3553 83.9236 54.0275 85.8733 54.1081 87.8265V91.1887H39.2226V87.4386C38.9177 82.6986 40.7916 78.0474 44.4325 74.5071C46.3362 72.9729 48.5759 71.7872 51.0182 71.0208C53.4604 70.2543 56.0553 69.9227 58.6481 70.0457C63.9218 69.7504 69.1149 71.2852 73.0871 74.3131C74.8981 75.9824 76.295 77.9572 77.1912 80.1149C78.0875 82.2727 78.4638 84.5673 78.297 86.8566C78.426 90.0028 77.6048 93.1236 75.9153 95.9087C75.2911 97.024 74.4062 98.014 73.3169 98.8156C72.2276 99.6171 70.958 100.213 69.589 100.564C75.4688 102.439 78.4459 107.03 78.5203 115.177C78.5514 117.897 78.2015 120.611 77.4783 123.259C76.8898 125.581 75.7766 127.779 74.2035 129.725C72.6361 131.599 70.4962 133.055 68.026 133.927C65.2363 134.798 62.2798 135.193 59.318 135.091Z" fill="url(#paint31_linear_944_1521)"/>
</g>
<g style="mix-blend-mode:screen" opacity="0.4">
<path style="mix-blend-mode:screen" d="M59.3207 135.416C56.0387 135.476 52.7755 134.971 49.7196 133.929C47.175 133.076 44.9751 131.592 43.3932 129.662C41.9051 127.801 40.8205 125.719 40.1928 123.519C39.4656 120.829 39.1157 118.071 39.1508 115.308V112.721H55.0783V115.243C54.9342 117.543 55.2877 119.846 56.1203 122.032C56.4651 122.634 57.0135 123.13 57.6919 123.454C58.3703 123.777 59.1464 123.913 59.9161 123.843C60.6369 123.911 61.3639 123.779 61.9926 123.465C62.6212 123.151 63.119 122.672 63.4142 122.097C64.1423 120.003 64.4445 117.815 64.3073 115.631C64.5013 113.183 63.9628 110.733 62.7444 108.519C62.1232 107.75 61.2807 107.137 60.3012 106.74C59.3217 106.343 58.2393 106.176 57.1623 106.256H54.1852V96.2985H56.8646C57.9474 96.405 59.0437 96.2778 60.0563 95.9281C61.069 95.5785 61.9667 95.0172 62.6699 94.2941C63.779 92.2804 64.2908 90.0577 64.1585 87.8283C64.1841 85.841 63.6202 83.8815 62.5211 82.1385C62.1648 81.5824 61.6308 81.1278 60.9837 80.8295C60.3366 80.5312 59.6039 80.402 58.8741 80.4574C58.1638 80.3932 57.4484 80.528 56.8325 80.8421C56.2166 81.1562 55.7323 81.633 55.4505 82.2031C54.7334 84.0107 54.4055 85.9176 54.4829 87.8283V91.1905H39.2997V87.1171C39.0517 82.3612 40.978 77.7129 44.6585 74.1856C46.5952 72.6084 48.8797 71.3884 51.3742 70.5994C53.8686 69.8104 56.5212 69.4687 59.1718 69.5949C61.8658 69.421 64.5725 69.7207 67.1301 70.4761C69.6877 71.2315 72.0437 72.4272 74.0573 73.9916C75.9316 75.7053 77.3705 77.742 78.2808 79.9697C79.1911 82.1974 79.5526 84.5663 79.3417 86.9231C79.4391 90.1362 78.5939 93.3181 76.8856 96.1692C75.6663 98.1588 73.7324 99.748 71.378 100.695C74.2554 102.136 76.5719 104.29 78.0305 106.882C79.4892 109.474 80.0235 112.386 79.565 115.243C79.5244 118.036 79.0996 120.814 78.2997 123.519C77.6501 125.835 76.5147 128.027 74.9505 129.985C73.3401 131.907 71.1511 133.406 68.6241 134.317C65.6391 135.221 62.4753 135.595 59.3207 135.416ZM40.1928 113.109V115.049C40.1172 117.765 40.4171 120.478 41.086 123.131C41.7088 125.332 42.7938 127.415 44.2863 129.274C45.8045 131.106 47.8973 132.52 50.315 133.347C56.223 135.243 62.7161 135.243 68.6241 133.347C71.0024 132.491 73.0628 131.082 74.5784 129.274C76.1464 127.325 77.259 125.129 77.8532 122.808C78.5858 120.185 78.9113 117.489 78.8207 114.791C78.8207 107.096 75.918 102.312 70.2616 100.501L69.1451 100.178H70.2616C71.5619 99.8279 72.7668 99.2519 73.8032 98.485C74.8395 97.7181 75.6856 96.7762 76.2902 95.7165C77.9807 92.9784 78.8027 89.8989 78.6719 86.7938C78.8482 84.5537 78.4896 82.3061 77.6187 80.192C76.7477 78.078 75.3832 76.1431 73.6108 74.5089C69.7142 71.5506 64.6354 70.0412 59.4696 70.3061C56.9166 70.1824 54.3612 70.508 51.9567 71.2636C49.5522 72.0191 47.3483 73.1889 45.4772 74.7028C43.6631 76.4469 42.2732 78.4913 41.3907 80.7134C40.5083 82.9355 40.1514 85.2895 40.3417 87.6343V91.0612H54.2596V88.2163C54.217 86.2123 54.5953 84.2185 55.376 82.3324C55.7157 81.6495 56.2934 81.0763 57.0277 80.6935C57.762 80.3108 58.6161 80.1377 59.4696 80.1987C60.3318 80.155 61.1912 80.3191 61.9529 80.6728C62.7146 81.0265 63.3491 81.556 63.7864 82.2031C64.6596 84.0234 65.066 85.9871 64.9772 87.9576C65.2008 90.4218 64.6067 92.89 63.2654 95.07C62.4886 95.8687 61.5004 96.4918 60.3856 96.886C59.2708 97.2801 58.0626 97.4335 56.8646 97.333H54.9295V105.415H57.1623C58.374 105.331 59.5898 105.526 60.6873 105.98C61.7848 106.434 62.7253 107.131 63.4142 108.001C64.6991 110.313 65.2637 112.877 65.0516 115.437C65.1757 117.625 64.848 119.815 64.0841 121.903C63.7502 122.603 63.163 123.191 62.411 123.575C61.6591 123.96 60.7833 124.122 59.9161 124.037C59.0019 124.114 58.0825 123.944 57.2834 123.55C56.4843 123.157 55.8442 122.559 55.4505 121.838C54.5454 119.576 54.166 117.181 54.3341 114.791V112.915L40.1928 113.109Z" fill="url(#paint32_linear_944_1521)"/>
</g>
<path d="M27.912 131.151C27.6686 133.215 28.0005 135.3 28.8796 137.229C29.7663 139.202 31.1975 140.956 33.0475 142.337C35.1911 143.902 37.5697 145.208 40.1181 146.216C45.2379 147.886 50.2127 149.874 55.0036 152.165C57.1693 153.292 59.0038 154.842 60.3624 156.691C60.4671 156.787 60.5255 156.914 60.5255 157.046C60.5255 157.179 60.4671 157.306 60.3624 157.402C60.2518 157.493 60.1054 157.544 59.9531 157.544C59.8008 157.544 59.6543 157.493 59.5437 157.402L57.9807 155.85C56.866 154.735 55.5607 153.776 54.1105 153.005C50.4636 150.936 44.8815 149.32 39.6716 147.057C37.1576 145.958 34.8287 144.566 32.7498 142.919C30.858 141.402 29.4046 139.519 28.5074 137.423C27.6048 135.363 27.323 133.138 27.6887 130.957C27.6887 130.957 27.912 131.022 27.912 131.151Z" fill="url(#paint33_linear_944_1521)"/>
<path d="M27.4635 131.541C27.4635 131.541 22.8489 127.856 29.3986 124.105L27.4635 131.541Z" fill="url(#paint34_linear_944_1521)"/>
<path d="M27.4648 131.541C27.4648 131.541 33.4935 129.925 29.3999 124.105L27.4648 131.541Z" fill="url(#paint35_linear_944_1521)"/>
<path d="M28.6558 136.906C28.6558 136.906 26.1252 132.897 32.3027 131.539L28.6558 136.906Z" fill="url(#paint36_linear_944_1521)"/>
<path d="M28.6553 136.906C28.6553 136.906 33.7163 136.906 32.3022 131.539L28.6553 136.906Z" fill="url(#paint37_linear_944_1521)"/>
<path d="M28.0588 137.228C28.0588 137.228 23.4443 139.232 22.4023 133.672L28.0588 137.228Z" fill="url(#paint38_linear_944_1521)"/>
<path d="M28.0588 137.23C28.0588 137.23 28.6543 132.703 22.4023 133.673L28.0588 137.23Z" fill="url(#paint39_linear_944_1521)"/>
<path d="M32.7481 142.27C32.7481 142.27 28.6546 138.973 34.4599 135.805L32.7481 142.27Z" fill="url(#paint40_linear_944_1521)"/>
<path d="M32.749 142.27C32.749 142.27 38.0334 140.848 34.4609 135.805L32.749 142.27Z" fill="url(#paint41_linear_944_1521)"/>
<path d="M32.2269 142.92C32.2269 142.92 28.2078 146.347 24.7842 140.98L32.2269 142.92Z" fill="url(#paint42_linear_944_1521)"/>
<path d="M32.2269 142.919C32.2269 142.919 31.0361 138.134 24.7842 140.979L32.2269 142.919Z" fill="url(#paint43_linear_944_1521)"/>
<path d="M40.191 146.667C40.191 146.667 34.46 144.468 39.3723 139.037L40.191 146.667Z" fill="url(#paint44_linear_944_1521)"/>
<path d="M40.1908 146.667C40.1908 146.667 45.3263 143.498 39.3721 139.037L40.1908 146.667Z" fill="url(#paint45_linear_944_1521)"/>
<path d="M40.19 147.377C40.19 147.377 37.2874 152.42 31.6309 147.377H40.19Z" fill="url(#paint46_linear_944_1521)"/>
<path d="M40.19 147.444C40.19 147.444 36.9896 142.595 31.6309 147.444H40.19Z" fill="url(#paint47_linear_944_1521)"/>
<path d="M48.6007 149.384C48.6007 149.384 42.7954 148.026 46.5167 142.271L48.6007 149.384Z" fill="url(#paint48_linear_944_1521)"/>
<path d="M48.6013 149.384C48.6013 149.384 52.9181 145.698 46.5918 142.271L48.6013 149.384Z" fill="url(#paint49_linear_944_1521)"/>
<path d="M48.4532 150.289C48.4532 150.289 46.5181 155.397 40.415 151.647L48.4532 150.289Z" fill="url(#paint50_linear_944_1521)"/>
<path d="M48.4532 150.291C48.4532 150.291 44.6574 146.217 40.415 151.648L48.4532 150.291Z" fill="url(#paint51_linear_944_1521)"/>
<path d="M55.0778 152.748C55.0778 152.748 50.5378 150.808 54.6313 146.605L55.0778 152.748Z" fill="url(#paint52_linear_944_1521)"/>
<path d="M55.0764 152.748C55.0764 152.748 59.3188 150.291 54.6299 146.605L55.0764 152.748Z" fill="url(#paint53_linear_944_1521)"/>
<path d="M54.6296 153.326C54.6296 153.326 52.7689 157.529 47.7822 154.167L54.6296 153.326Z" fill="url(#paint54_linear_944_1521)"/>
<path d="M54.6296 153.328C54.6296 153.328 51.578 149.707 47.7822 154.168L54.6296 153.328Z" fill="url(#paint55_linear_944_1521)"/>
<path d="M92.292 131.087C92.6577 133.268 92.3759 135.493 91.4733 137.553C90.5762 139.649 89.1227 141.532 87.2309 143.049C84.9918 144.731 82.4851 146.125 79.7882 147.187C74.5783 149.45 68.9962 151.066 65.3492 153.135C63.8991 153.906 62.5938 154.865 61.479 155.98C60.7347 156.821 60.3626 157.338 60.3626 157.338C60.252 157.429 60.1055 157.48 59.9533 157.48C59.801 157.48 59.6545 157.429 59.5439 157.338C59.4392 157.242 59.3809 157.115 59.3809 156.982C59.3809 156.85 59.4392 156.723 59.5439 156.627C60.9025 154.778 62.737 153.228 64.9027 152.101C69.6937 149.81 74.6684 147.822 79.7882 146.152C82.4669 145.17 84.9726 143.864 87.2309 142.273C89.0809 140.892 90.5122 139.138 91.3989 137.165C92.3276 135.247 92.6612 133.152 92.3664 131.087C92.3338 131.038 92.3166 130.982 92.3166 130.925C92.3166 130.869 92.3338 130.813 92.3664 130.764C92.3664 130.764 92.292 130.893 92.292 131.087Z" fill="url(#paint56_linear_944_1521)"/>
<path d="M91.8443 131.541C91.8443 131.541 96.4588 127.856 89.9092 124.105L91.8443 131.541Z" fill="url(#paint57_linear_944_1521)"/>
<path d="M91.8443 131.541C91.8443 131.541 85.8157 129.925 89.9092 124.105L91.8443 131.541Z" fill="url(#paint58_linear_944_1521)"/>
<path d="M90.6538 136.906C90.6538 136.906 93.1843 132.897 87.0068 131.539L90.6538 136.906Z" fill="url(#paint59_linear_944_1521)"/>
<path d="M90.6532 136.906C90.6532 136.906 85.5921 136.906 87.0062 131.539L90.6532 136.906Z" fill="url(#paint60_linear_944_1521)"/>
<path d="M91.248 137.228C91.248 137.228 95.8626 139.232 96.9045 133.672L91.248 137.228Z" fill="url(#paint61_linear_944_1521)"/>
<path d="M91.2486 137.23C91.2486 137.23 90.6532 132.703 96.9051 133.673L91.2486 137.23Z" fill="url(#paint62_linear_944_1521)"/>
<path d="M86.6347 142.27C86.6347 142.27 90.7282 138.973 84.9229 135.805L86.6347 142.27Z" fill="url(#paint63_linear_944_1521)"/>
<path d="M86.6342 142.27C86.6342 142.27 81.3499 140.848 84.9224 135.805L86.6342 142.27Z" fill="url(#paint64_linear_944_1521)"/>
<path d="M87.0811 142.92C87.0811 142.92 91.1001 146.347 94.5238 140.98L87.0811 142.92Z" fill="url(#paint65_linear_944_1521)"/>
<path d="M87.0811 142.919C87.0811 142.919 88.2719 138.134 94.5238 140.979L87.0811 142.919Z" fill="url(#paint66_linear_944_1521)"/>
<path d="M79.1172 146.667C79.1172 146.667 84.8481 144.468 79.9359 139.037L79.1172 146.667Z" fill="url(#paint67_linear_944_1521)"/>
<path d="M79.1165 146.667C79.1165 146.667 73.981 143.498 79.9352 139.037L79.1165 146.667Z" fill="url(#paint68_linear_944_1521)"/>
<path d="M79.4141 147.377C79.4141 147.377 82.3167 152.42 88.0477 147.377H79.4141Z" fill="url(#paint69_linear_944_1521)"/>
<path d="M79.4141 147.444C79.4141 147.444 82.6144 142.595 87.9732 147.444H79.4141Z" fill="url(#paint70_linear_944_1521)"/>
<path d="M70.7061 149.384C70.7061 149.384 76.5114 148.026 72.79 142.271L70.7061 149.384Z" fill="url(#paint71_linear_944_1521)"/>
<path d="M70.7063 149.384C70.7063 149.384 66.3895 145.698 72.7159 142.271L70.7063 149.384Z" fill="url(#paint72_linear_944_1521)"/>
<path d="M70.8555 150.289C70.8555 150.289 72.7906 155.397 78.8936 151.647L70.8555 150.289Z" fill="url(#paint73_linear_944_1521)"/>
<path d="M70.8555 150.291C70.8555 150.291 74.6513 146.217 78.8936 151.648L70.8555 150.291Z" fill="url(#paint74_linear_944_1521)"/>
<path d="M64.2314 152.748C64.2314 152.748 68.7715 150.808 64.678 146.605L64.2314 152.748Z" fill="url(#paint75_linear_944_1521)"/>
<path d="M64.2305 152.748C64.2305 152.748 59.9882 150.291 64.6771 146.605L64.2305 152.748Z" fill="url(#paint76_linear_944_1521)"/>
<path d="M64.6768 153.326C64.6768 153.326 66.5374 157.529 71.5241 154.167L64.6768 153.326Z" fill="url(#paint77_linear_944_1521)"/>
<path d="M64.6768 153.328C64.6768 153.328 67.7283 149.707 71.5241 154.168L64.6768 153.328Z" fill="url(#paint78_linear_944_1521)"/>
<path d="M59.6181 55.2422L61.181 58.7337L65.5723 58.9923L62.1486 61.32L63.3394 65.0701L59.6181 62.8718L55.9711 65.0701L57.162 61.32L53.7383 58.9923L58.1295 58.7337L59.6181 55.2422Z" fill="url(#paint79_linear_944_1521)"/>
<path style="mix-blend-mode:screen" opacity="0.3" d="M63.7103 65.3294L59.6912 62.8724L55.5977 65.3294L56.9374 61.1913L53.1416 58.8636H57.9794L59.6912 55.0488L61.3286 58.8636H66.2409L62.3706 61.4499L63.7103 65.3294ZM59.6912 62.4198L62.8916 64.3595L61.8496 60.9327L65.05 58.8636H61.0309L59.6912 55.6954L58.2771 58.8636H54.3324L57.384 60.9327L56.342 64.3595L59.6912 62.4198Z" fill="url(#paint80_linear_944_1521)"/>
<path d="M44.7321 59.1875L45.923 61.9678L49.4211 62.1617L46.6672 64.0368L47.6348 67.0111L44.6577 65.2653L41.755 67.0111L42.7226 64.0368L39.9688 62.1617L43.4669 61.9678L44.7321 59.1875Z" fill="url(#paint81_linear_944_1521)"/>
<path style="mix-blend-mode:screen" opacity="0.3" d="M47.6341 67.3981L44.657 65.329L41.4566 67.2688L42.4986 63.9712L39.5215 61.9022H43.3917L44.7314 58.8633L46.0711 61.9022H49.8669L46.8898 63.9712L47.6341 67.3981ZM44.657 65.329L47.1875 66.8808L46.2944 64.1652L48.8249 62.4841H45.6245L44.5826 59.9625L43.4662 62.4841H40.4146L42.9452 64.1652L42.052 66.8808L44.657 65.329Z" fill="url(#paint82_linear_944_1521)"/>
<path d="M74.5776 59.1875L75.8429 61.9678L79.341 62.1617L76.5871 64.0368L77.5547 67.0111L74.652 65.2653L71.6749 67.0111L72.6425 64.0368L69.8887 62.1617L73.3868 61.9678L74.5776 59.1875Z" fill="url(#paint83_linear_944_1521)"/>
<path style="mix-blend-mode:screen" opacity="0.3" d="M77.8517 67.3981L74.6513 65.4584L71.451 67.3981L72.4185 64.1005L69.4414 62.0315H73.2372L74.5769 58.8633L75.9166 61.9022H79.7868L76.8097 63.9712L77.8517 67.3981ZM74.6513 65.329L77.1819 66.8808L76.2887 64.1652L78.8193 62.4841H75.6189L74.5025 59.9625L73.4605 62.4841H70.409L72.9395 64.1652L72.0464 66.8808L74.6513 65.329Z" fill="url(#paint84_linear_944_1521)"/>
<defs>
<linearGradient id="paint0_linear_944_1521" x1="59.6909" y1="249.215" x2="59.6909" y2="5.64972" gradientUnits="userSpaceOnUse">
<stop stop-color="#CFD1D3"/>
<stop offset="0.32" stop-color="#CCCED1"/>
<stop offset="0.54" stop-color="#C3C6C9"/>
<stop offset="0.72" stop-color="#B4B8BC"/>
<stop offset="0.88" stop-color="#9FA3AA"/>
<stop offset="1" stop-color="#8B9099"/>
</linearGradient>
<linearGradient id="paint1_linear_944_1521" x1="59.7669" y1="248.633" x2="59.7669" y2="235.249" gradientUnits="userSpaceOnUse">
<stop stop-color="#9396A6"/>
<stop offset="0.26" stop-color="#74798D"/>
<stop offset="0.82" stop-color="#272F4D"/>
<stop offset="1" stop-color="#0D1637"/>
</linearGradient>
<linearGradient id="paint2_linear_944_1521" x1="111.567" y1="249.215" x2="111.567" y2="5.64972" gradientUnits="userSpaceOnUse">
<stop stop-color="#3F4661"/>
<stop offset="0.51" stop-color="#272F4D"/>
<stop offset="1" stop-color="#0D1637"/>
</linearGradient>
<linearGradient id="paint3_linear_944_1521" x1="7.96528" y1="249.215" x2="7.96528" y2="5.64972" gradientUnits="userSpaceOnUse">
<stop stop-color="#3F4661"/>
<stop offset="0.51" stop-color="#272F4D"/>
<stop offset="1" stop-color="#0D1637"/>
</linearGradient>
<linearGradient id="paint4_linear_944_1521" x1="16.6719" y1="235.701" x2="16.6719" y2="5.45573" gradientUnits="userSpaceOnUse">
<stop stop-color="#9FA2AC"/>
<stop offset="0.07" stop-color="#AAACB5"/>
<stop offset="0.32" stop-color="#C9CBD0"/>
<stop offset="0.57" stop-color="#E0E0E3"/>
<stop offset="0.8" stop-color="#EDEEEE"/>
<stop offset="1" stop-color="#F2F2F2"/>
</linearGradient>
<linearGradient id="paint5_linear_944_1521" x1="102.934" y1="235.701" x2="102.934" y2="5.45573" gradientUnits="userSpaceOnUse">
<stop stop-color="#9FA2AC"/>
<stop offset="0.07" stop-color="#AAACB5"/>
<stop offset="0.32" stop-color="#C9CBD0"/>
<stop offset="0.57" stop-color="#E0E0E3"/>
<stop offset="0.8" stop-color="#EDEEEE"/>
<stop offset="1" stop-color="#F2F2F2"/>
</linearGradient>
<linearGradient id="paint6_linear_944_1521" x1="59.6912" y1="4.2919" x2="59.6912" y2="2.22286" gradientUnits="userSpaceOnUse">
<stop stop-color="#D8DAE0"/>
<stop offset="0.02" stop-color="#DEDFE4"/>
<stop offset="0.1" stop-color="#E9EAEC"/>
<stop offset="0.2" stop-color="#F0F0F1"/>
<stop offset="0.5" stop-color="#F2F2F2"/>
<stop offset="0.73" stop-color="#EFF0F0"/>
<stop offset="0.88" stop-color="#E7E8EA"/>
<stop offset="1" stop-color="#D8DAE0"/>
</linearGradient>
<linearGradient id="paint7_linear_944_1521" x1="16.6717" y1="248.051" x2="16.6717" y2="235.184" gradientUnits="userSpaceOnUse">
<stop stop-color="#9FA2AC"/>
<stop offset="0.07" stop-color="#AAACB5"/>
<stop offset="0.32" stop-color="#C9CBD0"/>
<stop offset="0.57" stop-color="#E0E0E3"/>
<stop offset="0.8" stop-color="#EDEEEE"/>
<stop offset="1" stop-color="#F2F2F2"/>
</linearGradient>
<linearGradient id="paint8_linear_944_1521" x1="111.567" y1="248.828" x2="111.567" y2="158.76" gradientUnits="userSpaceOnUse">
<stop stop-color="#9CA3B8"/>
<stop offset="0.2" stop-color="#BFC4D1"/>
<stop offset="0.4" stop-color="#DBDEE5"/>
<stop offset="0.6" stop-color="#EFF0F4"/>
<stop offset="0.8" stop-color="#FBFBFC"/>
<stop offset="1" stop-color="white"/>
</linearGradient>
<linearGradient id="paint9_linear_944_1521" x1="107.25" y1="105.416" x2="107.25" y2="3.64532" gradientUnits="userSpaceOnUse">
<stop stop-color="#9396A6"/>
<stop offset="0.26" stop-color="#74798D"/>
<stop offset="0.82" stop-color="#272F4D"/>
<stop offset="1" stop-color="#0D1637"/>
</linearGradient>
<linearGradient id="paint10_linear_944_1521" x1="111.567" y1="248.763" x2="111.567" y2="183.071" gradientUnits="userSpaceOnUse">
<stop stop-color="#9CA3B8"/>
<stop offset="0.2" stop-color="#BFC4D1"/>
<stop offset="0.4" stop-color="#DBDEE5"/>
<stop offset="0.6" stop-color="#EFF0F4"/>
<stop offset="0.8" stop-color="#FBFBFC"/>
<stop offset="1" stop-color="white"/>
</linearGradient>
<linearGradient id="paint11_linear_944_1521" x1="108.59" y1="165.228" x2="108.59" y2="116.217" gradientUnits="userSpaceOnUse">
<stop stop-color="#9396A6"/>
<stop offset="0.26" stop-color="#74798D"/>
<stop offset="0.82" stop-color="#272F4D"/>
<stop offset="1" stop-color="#0D1637"/>
</linearGradient>
<linearGradient id="paint12_linear_944_1521" x1="102.934" y1="248.051" x2="102.934" y2="235.184" gradientUnits="userSpaceOnUse">
<stop stop-color="#9FA2AC"/>
<stop offset="0.07" stop-color="#AAACB5"/>
<stop offset="0.32" stop-color="#C9CBD0"/>
<stop offset="0.57" stop-color="#E0E0E3"/>
<stop offset="0.8" stop-color="#EDEEEE"/>
<stop offset="1" stop-color="#F2F2F2"/>
</linearGradient>
<linearGradient id="paint13_linear_944_1521" x1="7.96528" y1="248.828" x2="7.96528" y2="158.76" gradientUnits="userSpaceOnUse">
<stop stop-color="#9CA3B8"/>
<stop offset="0.2" stop-color="#BFC4D1"/>
<stop offset="0.4" stop-color="#DBDEE5"/>
<stop offset="0.6" stop-color="#EFF0F4"/>
<stop offset="0.8" stop-color="#FBFBFC"/>
<stop offset="1" stop-color="white"/>
</linearGradient>
<linearGradient id="paint14_linear_944_1521" x1="59.7647" y1="235.702" x2="59.7647" y2="234.408" gradientUnits="userSpaceOnUse">
<stop stop-color="#9FA2AC"/>
<stop offset="0.07" stop-color="#AAACB5"/>
<stop offset="0.32" stop-color="#C9CBD0"/>
<stop offset="0.57" stop-color="#E0E0E3"/>
<stop offset="0.8" stop-color="#EDEEEE"/>
<stop offset="1" stop-color="#F2F2F2"/>
</linearGradient>
<linearGradient id="paint15_linear_944_1521" x1="12.2813" y1="105.416" x2="12.2813" y2="3.64532" gradientUnits="userSpaceOnUse">
<stop stop-color="#9396A6"/>
<stop offset="0.26" stop-color="#74798D"/>
<stop offset="0.82" stop-color="#272F4D"/>
<stop offset="1" stop-color="#0D1637"/>
</linearGradient>
<linearGradient id="paint16_linear_944_1521" x1="7.96528" y1="248.763" x2="7.96528" y2="183.071" gradientUnits="userSpaceOnUse">
<stop stop-color="#9CA3B8"/>
<stop offset="0.2" stop-color="#BFC4D1"/>
<stop offset="0.4" stop-color="#DBDEE5"/>
<stop offset="0.6" stop-color="#EFF0F4"/>
<stop offset="0.8" stop-color="#FBFBFC"/>
<stop offset="1" stop-color="white"/>
</linearGradient>
<linearGradient id="paint17_linear_944_1521" x1="11.0165" y1="165.228" x2="11.0165" y2="116.217" gradientUnits="userSpaceOnUse">
<stop stop-color="#9396A6"/>
<stop offset="0.26" stop-color="#74798D"/>
<stop offset="0.82" stop-color="#272F4D"/>
<stop offset="1" stop-color="#0D1637"/>
</linearGradient>
<linearGradient id="paint18_linear_944_1521" x1="1.71337" y1="264.084" x2="116.481" y2="264.084" gradientUnits="userSpaceOnUse">
<stop stop-color="#000312"/>
<stop offset="0.61" stop-color="#303343"/>
<stop offset="1" stop-color="#4A4D5E"/>
</linearGradient>
<linearGradient id="paint19_linear_944_1521" x1="59.7669" y1="280.184" x2="59.7669" y2="248.114" gradientUnits="userSpaceOnUse">
<stop stop-color="#4A4D5E"/>
<stop offset="0.3" stop-color="#2F3243"/>
<stop offset="0.52" stop-color="#202334"/>
<stop offset="1" stop-color="#4A4D5E"/>
</linearGradient>
<linearGradient id="paint20_linear_944_1521" x1="117.819" y1="279.411" x2="3.126" y2="279.411" gradientUnits="userSpaceOnUse">
<stop stop-color="#000312"/>
<stop offset="0.61" stop-color="#303343"/>
<stop offset="1" stop-color="#4A4D5E"/>
</linearGradient>
<linearGradient id="paint21_linear_944_1521" x1="59.8394" y1="248.372" x2="59.8394" y2="279.861" gradientUnits="userSpaceOnUse">
<stop stop-color="white"/>
<stop offset="0.16" stop-color="#FBFBFC"/>
<stop offset="0.31" stop-color="#EFF0F3"/>
<stop offset="0.47" stop-color="#DBDDE5"/>
<stop offset="0.63" stop-color="#BFC3D1"/>
<stop offset="0.78" stop-color="#9BA1B7"/>
<stop offset="0.94" stop-color="#6F7897"/>
<stop offset="1" stop-color="#5B6589"/>
</linearGradient>
<linearGradient id="paint22_linear_944_1521" x1="111.567" y1="249.215" x2="111.567" y2="5.64972" gradientUnits="userSpaceOnUse">
<stop stop-color="#0D1637"/>
<stop offset="0.49" stop-color="#272F4D"/>
<stop offset="1" stop-color="#3F4661"/>
</linearGradient>
<linearGradient id="paint23_linear_944_1521" x1="7.96528" y1="249.215" x2="7.96528" y2="5.64972" gradientUnits="userSpaceOnUse">
<stop stop-color="#0D1637"/>
<stop offset="0.49" stop-color="#272F4D"/>
<stop offset="1" stop-color="#3F4661"/>
</linearGradient>
<linearGradient id="paint24_linear_944_1521" x1="111.567" y1="235.702" x2="111.567" y2="234.408" gradientUnits="userSpaceOnUse">
<stop stop-color="#9FA2AC"/>
<stop offset="0.07" stop-color="#AAACB5"/>
<stop offset="0.32" stop-color="#C9CBD0"/>
<stop offset="0.57" stop-color="#E0E0E3"/>
<stop offset="0.8" stop-color="#EDEEEE"/>
<stop offset="1" stop-color="#F2F2F2"/>
</linearGradient>
<linearGradient id="paint25_linear_944_1521" x1="7.96528" y1="235.702" x2="7.96528" y2="234.408" gradientUnits="userSpaceOnUse">
<stop stop-color="#9FA2AC"/>
<stop offset="0.07" stop-color="#AAACB5"/>
<stop offset="0.32" stop-color="#C9CBD0"/>
<stop offset="0.57" stop-color="#E0E0E3"/>
<stop offset="0.8" stop-color="#EDEEEE"/>
<stop offset="1" stop-color="#F2F2F2"/>
</linearGradient>
<linearGradient id="paint26_linear_944_1521" x1="111.567" y1="248.633" x2="111.567" y2="235.895" gradientUnits="userSpaceOnUse">
<stop stop-color="#9396A6"/>
<stop offset="0.26" stop-color="#74798D"/>
<stop offset="0.82" stop-color="#272F4D"/>
<stop offset="1" stop-color="#0D1637"/>
</linearGradient>
<linearGradient id="paint27_linear_944_1521" x1="7.96528" y1="248.633" x2="7.96528" y2="235.895" gradientUnits="userSpaceOnUse">
<stop stop-color="#9396A6"/>
<stop offset="0.26" stop-color="#74798D"/>
<stop offset="0.82" stop-color="#272F4D"/>
<stop offset="1" stop-color="#0D1637"/>
</linearGradient>
<linearGradient id="paint28_linear_944_1521" x1="57.2358" y1="271.393" x2="57.2358" y2="275.595" gradientUnits="userSpaceOnUse">
<stop stop-color="#000312"/>
<stop offset="0.17" stop-color="#2F313E"/>
<stop offset="0.58" stop-color="#9E9FA5"/>
<stop offset="0.87" stop-color="#E4E4E6"/>
<stop offset="1" stop-color="white"/>
</linearGradient>
<linearGradient id="paint29_linear_944_1521" x1="97.3503" y1="257.3" x2="23.6204" y2="274.967" gradientUnits="userSpaceOnUse">
<stop stop-color="#B26E41"/>
<stop offset="0.04" stop-color="#B8784D"/>
<stop offset="0.19" stop-color="#D09F78"/>
<stop offset="0.27" stop-color="#D9AE89"/>
<stop offset="0.34" stop-color="#CC9870"/>
<stop offset="0.45" stop-color="#B9794C"/>
<stop offset="0.51" stop-color="#B26D3F"/>
<stop offset="0.73" stop-color="#B97344"/>
<stop offset="0.82" stop-color="#A66136"/>
<stop offset="0.92" stop-color="#98542C"/>
<stop offset="1" stop-color="#934F28"/>
</linearGradient>
<linearGradient id="paint30_linear_944_1521" x1="97.3503" y1="257.3" x2="23.6204" y2="274.967" gradientUnits="userSpaceOnUse">
<stop stop-color="#EBBB8E"/>
<stop offset="0.28" stop-color="#C99271"/>
<stop offset="0.89" stop-color="#752C27"/>
<stop offset="1" stop-color="#651919"/>
</linearGradient>
<linearGradient id="paint31_linear_944_1521" x1="59.2436" y1="69.9164" x2="59.2436" y2="133.151" gradientUnits="userSpaceOnUse">
<stop stop-color="#F8F8FA"/>
<stop offset="1" stop-color="#E8E8EB"/>
</linearGradient>
<linearGradient id="paint32_linear_944_1521" x1="59.2463" y1="69.5949" x2="59.2463" y2="135.416" gradientUnits="userSpaceOnUse">
<stop stop-color="#F8F8FA"/>
<stop offset="1" stop-color="#E8E8EB"/>
</linearGradient>
<linearGradient id="paint33_linear_944_1521" x1="43.6907" y1="130.504" x2="43.6907" y2="157.531" gradientUnits="userSpaceOnUse">
<stop stop-color="#F8F8FA"/>
<stop offset="1" stop-color="#E8E8EB"/>
</linearGradient>
<linearGradient id="paint34_linear_944_1521" x1="26.0923" y1="127.166" x2="28.2523" y2="128.001" gradientUnits="userSpaceOnUse">
<stop stop-color="#F8F8FA"/>
<stop offset="1" stop-color="#E8E8EB"/>
</linearGradient>
<linearGradient id="paint35_linear_944_1521" x1="28.3248" y1="127.817" x2="30.754" y2="128.332" gradientUnits="userSpaceOnUse">
<stop stop-color="#F8F8FA"/>
<stop offset="1" stop-color="#E8E8EB"/>
</linearGradient>
<linearGradient id="paint36_linear_944_1521" x1="29.5757" y1="133.196" x2="30.9231" y2="134.367" gradientUnits="userSpaceOnUse">
<stop stop-color="#F8F8FA"/>
<stop offset="1" stop-color="#E8E8EB"/>
</linearGradient>
<linearGradient id="paint37_linear_944_1521" x1="31.1523" y1="134.204" x2="32.746" y2="135.242" gradientUnits="userSpaceOnUse">
<stop stop-color="#F8F8FA"/>
<stop offset="1" stop-color="#E8E8EB"/>
</linearGradient>
<linearGradient id="paint38_linear_944_1521" x1="25.2306" y1="135.418" x2="24.2429" y2="136.91" gradientUnits="userSpaceOnUse">
<stop stop-color="#F8F8FA"/>
<stop offset="1" stop-color="#E8E8EB"/>
</linearGradient>
<linearGradient id="paint39_linear_944_1521" x1="26.2726" y1="134.126" x2="25.422" y2="135.595" gradientUnits="userSpaceOnUse">
<stop stop-color="#F8F8FA"/>
<stop offset="1" stop-color="#E8E8EB"/>
</linearGradient>
<linearGradient id="paint40_linear_944_1521" x1="31.4919" y1="138.355" x2="33.353" y2="139.117" gradientUnits="userSpaceOnUse">
<stop stop-color="#F8F8FA"/>
<stop offset="1" stop-color="#E8E8EB"/>
</linearGradient>
<linearGradient id="paint41_linear_944_1521" x1="33.422" y1="138.951" x2="35.555" y2="139.397" gradientUnits="userSpaceOnUse">
<stop stop-color="#F8F8FA"/>
<stop offset="1" stop-color="#E8E8EB"/>
</linearGradient>
<linearGradient id="paint42_linear_944_1521" x1="28.6297" y1="141.731" x2="28.0597" y2="143.559" gradientUnits="userSpaceOnUse">
<stop stop-color="#F8F8FA"/>
<stop offset="1" stop-color="#E8E8EB"/>
</linearGradient>
<linearGradient id="paint43_linear_944_1521" x1="29.1752" y1="140.075" x2="28.7188" y2="141.846" gradientUnits="userSpaceOnUse">
<stop stop-color="#F8F8FA"/>
<stop offset="1" stop-color="#E8E8EB"/>
</linearGradient>
<linearGradient id="paint44_linear_944_1521" x1="37.6039" y1="142.283" x2="39.8849" y2="142.327" gradientUnits="userSpaceOnUse">
<stop stop-color="#F8F8FA"/>
<stop offset="1" stop-color="#E8E8EB"/>
</linearGradient>
<linearGradient id="paint45_linear_944_1521" x1="39.9556" y1="142.296" x2="42.4127" y2="141.91" gradientUnits="userSpaceOnUse">
<stop stop-color="#F8F8FA"/>
<stop offset="1" stop-color="#E8E8EB"/>
</linearGradient>
<linearGradient id="paint46_linear_944_1521" x1="35.6036" y1="147.525" x2="35.5763" y2="149.645" gradientUnits="userSpaceOnUse">
<stop stop-color="#F8F8FA"/>
<stop offset="1" stop-color="#E8E8EB"/>
</linearGradient>
<linearGradient id="paint47_linear_944_1521" x1="35.4608" y1="145.523" x2="35.5686" y2="147.529" gradientUnits="userSpaceOnUse">
<stop stop-color="#F8F8FA"/>
<stop offset="1" stop-color="#E8E8EB"/>
</linearGradient>
<linearGradient id="paint48_linear_944_1521" x1="45.3119" y1="146.345" x2="47.4166" y2="145.883" gradientUnits="userSpaceOnUse">
<stop stop-color="#F8F8FA"/>
<stop offset="1" stop-color="#E8E8EB"/>
</linearGradient>
<linearGradient id="paint49_linear_944_1521" x1="47.4749" y1="146.05" x2="49.7008" y2="145.223" gradientUnits="userSpaceOnUse">
<stop stop-color="#F8F8FA"/>
<stop offset="1" stop-color="#E8E8EB"/>
</linearGradient>
<linearGradient id="paint50_linear_944_1521" x1="44.3917" y1="150.896" x2="44.6085" y2="152.958" gradientUnits="userSpaceOnUse">
<stop stop-color="#F8F8FA"/>
<stop offset="1" stop-color="#E8E8EB"/>
</linearGradient>
<linearGradient id="paint51_linear_944_1521" x1="43.898" y1="149.118" x2="44.2761" y2="151.012" gradientUnits="userSpaceOnUse">
<stop stop-color="#F8F8FA"/>
<stop offset="1" stop-color="#E8E8EB"/>
</linearGradient>
<linearGradient id="paint52_linear_944_1521" x1="53.5357" y1="148.866" x2="55.3964" y2="148.866" gradientUnits="userSpaceOnUse">
<stop stop-color="#F8F8FA"/>
<stop offset="1" stop-color="#E8E8EB"/>
</linearGradient>
<linearGradient id="paint53_linear_944_1521" x1="55.4664" y1="148.848" x2="57.4228" y2="148.636" gradientUnits="userSpaceOnUse">
<stop stop-color="#F8F8FA"/>
<stop offset="1" stop-color="#E8E8EB"/>
</linearGradient>
<linearGradient id="paint54_linear_944_1521" x1="51.2885" y1="152.231" x2="51.3937" y2="153.972" gradientUnits="userSpaceOnUse">
<stop stop-color="#F8F8FA"/>
<stop offset="1" stop-color="#E8E8EB"/>
</linearGradient>
<linearGradient id="paint55_linear_944_1521" x1="50.932" y1="150.67" x2="51.1615" y2="152.287" gradientUnits="userSpaceOnUse">
<stop stop-color="#F8F8FA"/>
<stop offset="1" stop-color="#E8E8EB"/>
</linearGradient>
<linearGradient id="paint56_linear_944_1521" x1="75.6202" y1="130.505" x2="75.6202" y2="157.532" gradientUnits="userSpaceOnUse">
<stop stop-color="#F8F8FA"/>
<stop offset="1" stop-color="#E8E8EB"/>
</linearGradient>
<linearGradient id="paint57_linear_944_1521" x1="92.8863" y1="127.403" x2="90.7237" y2="128.233" gradientUnits="userSpaceOnUse">
<stop stop-color="#F8F8FA"/>
<stop offset="1" stop-color="#E8E8EB"/>
</linearGradient>
<linearGradient id="paint58_linear_944_1521" x1="90.6535" y1="128.05" x2="88.2226" y2="128.558" gradientUnits="userSpaceOnUse">
<stop stop-color="#F8F8FA"/>
<stop offset="1" stop-color="#E8E8EB"/>
</linearGradient>
<linearGradient id="paint59_linear_944_1521" x1="90.4432" y1="134.01" x2="89.0957" y2="135.181" gradientUnits="userSpaceOnUse">
<stop stop-color="#F8F8FA"/>
<stop offset="1" stop-color="#E8E8EB"/>
</linearGradient>
<linearGradient id="paint60_linear_944_1521" x1="88.8654" y1="135.019" x2="87.2718" y2="136.057" gradientUnits="userSpaceOnUse">
<stop stop-color="#F8F8FA"/>
<stop offset="1" stop-color="#E8E8EB"/>
</linearGradient>
<linearGradient id="paint61_linear_944_1521" x1="94.0763" y1="135.418" x2="95.064" y2="136.91" gradientUnits="userSpaceOnUse">
<stop stop-color="#F8F8FA"/>
<stop offset="1" stop-color="#E8E8EB"/>
</linearGradient>
<linearGradient id="paint62_linear_944_1521" x1="93.0349" y1="134.126" x2="93.8855" y2="135.595" gradientUnits="userSpaceOnUse">
<stop stop-color="#F8F8FA"/>
<stop offset="1" stop-color="#E8E8EB"/>
</linearGradient>
<linearGradient id="paint63_linear_944_1521" x1="88.0287" y1="138.244" x2="86.1557" y2="138.931" gradientUnits="userSpaceOnUse">
<stop stop-color="#F8F8FA"/>
<stop offset="1" stop-color="#E8E8EB"/>
</linearGradient>
<linearGradient id="paint64_linear_944_1521" x1="86.0991" y1="138.778" x2="83.9763" y2="139.309" gradientUnits="userSpaceOnUse">
<stop stop-color="#F8F8FA"/>
<stop offset="1" stop-color="#E8E8EB"/>
</linearGradient>
<linearGradient id="paint65_linear_944_1521" x1="91.2564" y1="141.399" x2="91.853" y2="143.168" gradientUnits="userSpaceOnUse">
<stop stop-color="#F8F8FA"/>
<stop offset="1" stop-color="#E8E8EB"/>
</linearGradient>
<linearGradient id="paint66_linear_944_1521" x1="90.7972" y1="139.705" x2="91.2039" y2="141.447" gradientUnits="userSpaceOnUse">
<stop stop-color="#F8F8FA"/>
<stop offset="1" stop-color="#E8E8EB"/>
</linearGradient>
<linearGradient id="paint67_linear_944_1521" x1="81.4237" y1="142.983" x2="79.1657" y2="142.945" gradientUnits="userSpaceOnUse">
<stop stop-color="#F8F8FA"/>
<stop offset="1" stop-color="#E8E8EB"/>
</linearGradient>
<linearGradient id="paint68_linear_944_1521" x1="79.0942" y1="142.935" x2="76.637" y2="142.549" gradientUnits="userSpaceOnUse">
<stop stop-color="#F8F8FA"/>
<stop offset="1" stop-color="#E8E8EB"/>
</linearGradient>
<linearGradient id="paint69_linear_944_1521" x1="83.3141" y1="147.558" x2="83.3365" y2="149.679" gradientUnits="userSpaceOnUse">
<stop stop-color="#F8F8FA"/>
<stop offset="1" stop-color="#E8E8EB"/>
</linearGradient>
<linearGradient id="paint70_linear_944_1521" x1="83.4629" y1="145.556" x2="83.3505" y2="147.563" gradientUnits="userSpaceOnUse">
<stop stop-color="#F8F8FA"/>
<stop offset="1" stop-color="#E8E8EB"/>
</linearGradient>
<linearGradient id="paint71_linear_944_1521" x1="73.7896" y1="145.985" x2="71.6504" y2="145.595" gradientUnits="userSpaceOnUse">
<stop stop-color="#F8F8FA"/>
<stop offset="1" stop-color="#E8E8EB"/>
</linearGradient>
<linearGradient id="paint72_linear_944_1521" x1="71.5339" y1="145.716" x2="69.3775" y2="144.926" gradientUnits="userSpaceOnUse">
<stop stop-color="#F8F8FA"/>
<stop offset="1" stop-color="#E8E8EB"/>
</linearGradient>
<linearGradient id="paint73_linear_944_1521" x1="75.3152" y1="150.551" x2="75.064" y2="152.565" gradientUnits="userSpaceOnUse">
<stop stop-color="#F8F8FA"/>
<stop offset="1" stop-color="#E8E8EB"/>
</linearGradient>
<linearGradient id="paint74_linear_944_1521" x1="75.7498" y1="148.732" x2="75.3774" y2="150.62" gradientUnits="userSpaceOnUse">
<stop stop-color="#F8F8FA"/>
<stop offset="1" stop-color="#E8E8EB"/>
</linearGradient>
<linearGradient id="paint75_linear_944_1521" x1="65.7081" y1="149.846" x2="63.8474" y2="149.846" gradientUnits="userSpaceOnUse">
<stop stop-color="#F8F8FA"/>
<stop offset="1" stop-color="#E8E8EB"/>
</linearGradient>
<linearGradient id="paint76_linear_944_1521" x1="63.8465" y1="149.846" x2="61.8198" y2="149.61" gradientUnits="userSpaceOnUse">
<stop stop-color="#F8F8FA"/>
<stop offset="1" stop-color="#E8E8EB"/>
</linearGradient>
<linearGradient id="paint77_linear_944_1521" x1="67.444" y1="153.363" x2="67.2976" y2="155.062" gradientUnits="userSpaceOnUse">
<stop stop-color="#F8F8FA"/>
<stop offset="1" stop-color="#E8E8EB"/>
</linearGradient>
<linearGradient id="paint78_linear_944_1521" x1="67.7499" y1="151.849" x2="67.4783" y2="153.426" gradientUnits="userSpaceOnUse">
<stop stop-color="#F8F8FA"/>
<stop offset="1" stop-color="#E8E8EB"/>
</linearGradient>
<linearGradient id="paint79_linear_944_1521" x1="62.5207" y1="57.6345" x2="57.2581" y2="65.4028" gradientUnits="userSpaceOnUse">
<stop stop-color="#F8F8FA"/>
<stop offset="1" stop-color="#E8E8EB"/>
</linearGradient>
<linearGradient id="paint80_linear_944_1521" x1="59.6912" y1="54.2729" x2="59.6912" y2="65.3294" gradientUnits="userSpaceOnUse">
<stop stop-color="#F8F8FA"/>
<stop offset="1" stop-color="#E8E8EB"/>
</linearGradient>
<linearGradient id="paint81_linear_944_1521" x1="46.9649" y1="61.1272" x2="42.7474" y2="67.2672" gradientUnits="userSpaceOnUse">
<stop stop-color="#F8F8FA"/>
<stop offset="1" stop-color="#E8E8EB"/>
</linearGradient>
<linearGradient id="paint82_linear_944_1521" x1="44.7314" y1="58.4107" x2="44.7314" y2="67.2041" gradientUnits="userSpaceOnUse">
<stop stop-color="#F8F8FA"/>
<stop offset="1" stop-color="#E8E8EB"/>
</linearGradient>
<linearGradient id="paint83_linear_944_1521" x1="76.8849" y1="61.1272" x2="72.6673" y2="67.2672" gradientUnits="userSpaceOnUse">
<stop stop-color="#F8F8FA"/>
<stop offset="1" stop-color="#E8E8EB"/>
</linearGradient>
<linearGradient id="paint84_linear_944_1521" x1="74.5769" y1="58.4107" x2="74.5769" y2="67.2041" gradientUnits="userSpaceOnUse">
<stop stop-color="#F8F8FA"/>
<stop offset="1" stop-color="#E8E8EB"/>
</linearGradient>
</defs>
</svg>
